<svg xmlns="http://www.w3.org/2000/svg" width="148" height="137.191" viewBox="0 0 148 137.191">
  <g id="undraw_barbecue_3x93" transform="translate(0 -0.019)">
    <ellipse id="Ellipse_360" data-name="Ellipse 360" cx="73.5" cy="4.5" rx="73.5" ry="4.5" transform="translate(0 128.21)" fill="#3f3d56"/>
    <rect id="Rectangle_1552" data-name="Rectangle 1552" width="3" height="2" transform="translate(72 78.21)" fill="#3f3d56"/>
    <rect id="Rectangle_1553" data-name="Rectangle 1553" width="2" height="2" transform="translate(77 78.21)" fill="#3f3d56"/>
    <rect id="Rectangle_1554" data-name="Rectangle 1554" width="2" height="2" transform="translate(82 78.21)" fill="#3f3d56"/>
    <rect id="Rectangle_1555" data-name="Rectangle 1555" width="2" height="2" transform="translate(87 78.21)" fill="#3f3d56"/>
    <rect id="Rectangle_1556" data-name="Rectangle 1556" width="2" height="2" transform="translate(92 78.21)" fill="#3f3d56"/>
    <rect id="Rectangle_1557" data-name="Rectangle 1557" width="2" height="2" transform="translate(97 78.21)" fill="#3f3d56"/>
    <rect id="Rectangle_1558" data-name="Rectangle 1558" width="2" height="2" transform="translate(102 78.21)" fill="#3f3d56"/>
    <rect id="Rectangle_1559" data-name="Rectangle 1559" width="2" height="2" transform="translate(107 78.21)" fill="#3f3d56"/>
    <rect id="Rectangle_1560" data-name="Rectangle 1560" width="3" height="2" transform="translate(111 78.21)" fill="#3f3d56"/>
    <rect id="Rectangle_1561" data-name="Rectangle 1561" width="3" height="2" transform="translate(116 78.21)" fill="#3f3d56"/>
    <rect id="Rectangle_1562" data-name="Rectangle 1562" width="3" height="2" transform="translate(121 78.21)" fill="#3f3d56"/>
    <path id="Path_834" data-name="Path 834" d="M641.082,503.512a29.486,29.486,0,0,1-58.973,0Z" transform="translate(-511.772 -423.94)" fill="#3f3d56"/>
    <path id="Path_835" data-name="Path 835" d="M790.306,281.334l-18.757-55.909A29.466,29.466,0,0,1,808.882,244c.2.592.379,1.188.539,1.783A29.488,29.488,0,0,1,790.306,281.334Z" transform="translate(-662.421 -201.574)" fill="#3f3d56"/>
    <ellipse id="Ellipse_361" data-name="Ellipse 361" cx="3.5" cy="4" rx="3.5" ry="4" transform="translate(125 76.21)" fill="#3f3d56"/>
    <path id="Path_836" data-name="Path 836" d="M679.633,541.012a1.024,1.024,0,1,0,0,2.048h17.61a1.024,1.024,0,1,0,0-2.048Z" transform="translate(-588.512 -453.761)" fill="#006aff"/>
    <path id="Path_837" data-name="Path 837" d="M541.46,533.188l-3.666.135-13.21-28.408,3.342-1.554Z" transform="translate(-417.167 -400.274)" fill="#3f3d56"/>
    <path id="Path_838" data-name="Path 838" d="M368,533.188l3.667.135,13.209-28.408-3.342-1.554Z" transform="translate(-292.646 -400.274)" fill="#3f3d56"/>
    <rect id="Rectangle_1563" data-name="Rectangle 1563" width="30" height="2" transform="translate(85 116.21)" fill="#3f3d56"/>
    <path id="Path_839" data-name="Path 839" d="M771.633,226.294a.922.922,0,0,0-.881,1.191l.777,2.546a.922.922,0,1,0,1.763-.538l-.777-2.546A.923.923,0,0,0,771.633,226.294Z" transform="translate(-661.755 -203.487)" fill="#006aff"/>
    <path id="Path_840" data-name="Path 840" d="M572.53,506.012a.921.921,0,0,0,0,1.843h2.662a.921.921,0,0,0,0-1.843Z" transform="translate(-503.422 -425.928)" fill="#006aff"/>
    <path id="Path_841" data-name="Path 841" d="M629.533,473.012H618.475c-.07,0-.137,0-.2.008a2.866,2.866,0,0,0-.006,5.717c.07.006.139.008.211.008h11.057a2.867,2.867,0,0,0,0-5.733Z" transform="translate(-538.412 -399.685)" fill="#ff6584"/>
    <path id="Path_842" data-name="Path 842" d="M622.928,478.518c1.884-.242,3.366-2.619,3.366-5.506h-.41c0,2.824-1.47,5.119-3.276,5.119v.229Z" transform="translate(-543.979 -399.685)" opacity="0.2"/>
    <path id="Path_843" data-name="Path 843" d="M643.609,478.541v-.41c1.806,0,3.276-2.3,3.276-5.119h.41C647.295,476.06,645.641,478.541,643.609,478.541Z" transform="translate(-560.679 -399.685)" opacity="0.2"/>
    <path id="Path_844" data-name="Path 844" d="M664.609,478.541v-.41c1.807,0,3.276-2.3,3.276-5.119h.41C668.295,476.06,666.641,478.541,664.609,478.541Z" transform="translate(-577.378 -399.685)" opacity="0.2"/>
    <path id="Path_845" data-name="Path 845" d="M727.533,473.012H716.475c-.07,0-.137,0-.2.008a2.866,2.866,0,0,0-.006,5.717c.07.006.139.008.211.008h11.057a2.867,2.867,0,0,0,0-5.733Z" transform="translate(-616.344 -399.685)" fill="#ff6584"/>
    <path id="Path_846" data-name="Path 846" d="M720.928,478.518c1.884-.242,3.366-2.619,3.366-5.506h-.41c0,2.824-1.47,5.119-3.276,5.119v.229Z" transform="translate(-621.911 -399.685)" opacity="0.2"/>
    <path id="Path_847" data-name="Path 847" d="M741.609,478.541v-.41c1.806,0,3.276-2.3,3.276-5.119h.409C745.295,476.06,743.641,478.541,741.609,478.541Z" transform="translate(-638.611 -399.685)" opacity="0.2"/>
    <path id="Path_848" data-name="Path 848" d="M762.609,478.541v-.41c1.807,0,3.276-2.3,3.276-5.119h.409C766.295,476.06,764.641,478.541,762.609,478.541Z" transform="translate(-655.311 -399.685)" opacity="0.2"/>
    <path id="Path_849" data-name="Path 849" d="M662.741,337.41a3.027,3.027,0,0,0-3.963,1.457c-.878,1.686-.15,3.712.874,5.153,1.064,1.5,2.509,2.733,3.219,4.463a7.46,7.46,0,0,1-2.91,9.187c-.667.422-.051,1.485.62,1.061a8.723,8.723,0,0,0,3.112-11.382,12.17,12.17,0,0,0-1.6-2.259c-1.066-1.261-2.408-2.652-2.474-4.407a2.775,2.775,0,0,1,.047-.68,2.39,2.39,0,0,1,.142-.456,2.222,2.222,0,0,1,.645-.805,1.964,1.964,0,0,1,.879-.4,1.317,1.317,0,0,1,.788.128C662.817,338.847,663.438,337.786,662.741,337.41Z" transform="translate(-572.429 -291.613)" fill="#e6e6e6"/>
    <path id="Path_850" data-name="Path 850" d="M753.624,374.194a3.583,3.583,0,0,0-3.585.833,2.177,2.177,0,0,0-.582,1.9,3.792,3.792,0,0,0,1.1,1.939c1,1.043,2.394,1.717,3.231,2.914a3.657,3.657,0,0,1,.676,1.734,3.275,3.275,0,0,1-.3,1.639,6.026,6.026,0,0,1-3.17,2.687.618.618,0,0,0-.22.84.631.631,0,0,0,.841.22c2.4-1.022,4.63-3.312,3.966-6.125a6.4,6.4,0,0,0-2.57-3.432,14.4,14.4,0,0,1-1.616-1.379,2.144,2.144,0,0,1-.739-1.574.871.871,0,0,1,.276-.518,2.381,2.381,0,0,1,.609-.4,2.289,2.289,0,0,1,1.76-.091.62.62,0,0,0,.756-.429.627.627,0,0,0-.429-.756Z" transform="translate(-644.825 -320.966)" fill="#e6e6e6"/>
    <path id="Path_851" data-name="Path 851" d="M706.827,287.555a2.107,2.107,0,0,0-1.31-.5,2.313,2.313,0,0,0-1.275.412,4.391,4.391,0,0,0-1.69,2.532c-.621,2.378.189,4.941,1.314,7.036.569,1.059,1.231,2.064,1.8,3.12a13.848,13.848,0,0,1,1.262,3.2,15.478,15.478,0,0,1,.152,6.988A11.455,11.455,0,0,1,703.8,316.5a.614.614,0,0,0,.869.869,12.022,12.022,0,0,0,3.237-5.327,16.333,16.333,0,0,0,.6-6.941,15.915,15.915,0,0,0-.788-3.4,18.8,18.8,0,0,0-1.563-3.19c-1.155-1.952-2.384-3.927-2.551-6.252a4.7,4.7,0,0,1,.768-3.254c-.039.05.031-.037.031-.037q.064-.077.133-.15a2.731,2.731,0,0,1,.282-.263c-.021.017-.076.053.023-.015.049-.034.1-.067.151-.1s.085-.047.128-.069l.078-.037q-.09.039.01,0c.048-.015.286-.066.154-.05a1.235,1.235,0,0,1,.133-.009c.019,0,.185.008.1,0s.075.017.076.017a1.219,1.219,0,0,1,.156.049c-.128-.051.21.139.132.078a.635.635,0,0,0,.869,0,.618.618,0,0,0,0-.869Z" transform="translate(-607.381 -251.803)" fill="#e6e6e6"/>
    <path id="Path_852" data-name="Path 852" d="M204.265,474.167l-4.631,1.229-8.507-39.319,9.546-.851Z" transform="translate(-151.991 -346.09)" fill="#ffb9b9"/>
    <path id="Path_853" data-name="Path 853" d="M117.233,475.736l-4.738.716-4.164-40.013,9.582.2Z" transform="translate(-86.148 -347.056)" fill="#ffb9b9"/>
    <path id="Path_854" data-name="Path 854" d="M336.654,328l.438,8.166a2.1,2.1,0,0,1-2.284,2.2h0a2.1,2.1,0,0,1-1.9-1.9l-.792-9.029-6.238-21.172.189-13.611,7.372.378Z" transform="translate(-308.009 -256.253)" fill="#ffb9b9"/>
    <path id="Path_855" data-name="Path 855" d="M347.965,475.041a26.3,26.3,0,0,0-12.854-.756,167.2,167.2,0,0,0,.756-21.928h25.142Z" transform="translate(-315.35 -383.259)" fill="#2f2e41"/>
    <path id="Path_856" data-name="Path 856" d="M391.974,475.586c-3.806,2.013-9.312,2.977-15.69,3.4l-7.94-25.331,19.471-.378Z" transform="translate(-341.779 -383.994)" fill="#2f2e41"/>
    <path id="Path_857" data-name="Path 857" d="M471.939,727.062l-13.7.507c-1.755.065-1.847-1.442-1.516-3.166l1.622-4.63c3.651,3.577,3.995,3.777,5.56-1.311l4.777,3.773,3.536.606a2.127,2.127,0,0,1,1.767,2.1h0A2.127,2.127,0,0,1,471.939,727.062Z" transform="translate(-411.943 -594.875)" fill="#2f2e41"/>
    <path id="Path_858" data-name="Path 858" d="M370.629,727.062l-13.7.507c-1.755.065-1.847-1.442-1.516-3.166l1.622-4.63c3.651,3.577,3.995,3.777,5.56-1.311l4.776,3.773,3.536.606a2.127,2.127,0,0,1,1.767,2.1h0A2.127,2.127,0,0,1,370.629,727.062Z" transform="translate(-331.378 -594.875)" fill="#2f2e41"/>
    <circle id="Ellipse_362" data-name="Ellipse 362" cx="7.372" cy="7.372" r="7.372" transform="translate(35.072 1.611)" fill="#ffb9b9"/>
    <path id="Path_859" data-name="Path 859" d="M155.049,63.447l-8.7-2.646,5.86-8.7,6.616,2.836Z" transform="translate(-116.385 -41.42)" fill="#ffb9b9"/>
    <path id="Path_860" data-name="Path 860" d="M355.716,255.936c-8.939,2.01-18.862,1.212-27.41-1.134,2.047-11.415,1.059-23.676-.945-33.648-1.568-7.806,2.569-14.356,9.452-17.58a19.168,19.168,0,0,1,4.582-1.032,8.921,8.921,0,0,1,9.58,8.013Z" transform="translate(-308.924 -184.571)" fill="#006aff"/>
    <path id="Path_861" data-name="Path 861" d="M90.738,155.933l-6.238-.756,1.89-9.83h4.348Z" transform="translate(-67.197 -115.57)" fill="#006aff"/>
    <path id="Path_862" data-name="Path 862" d="M409.373,125.139l-1.129-.5a1.93,1.93,0,0,0-2.65,1.278h0l-1.574,2.844-3.92-.621.137-6.02a8.416,8.416,0,0,1,10.16-6.906l.107.024a12.178,12.178,0,0,1,5.7,3.313l2.417,2.748a.95.95,0,0,1-.607,1.57l-3.305.365Z" transform="translate(-367.031 -114.988)" fill="#2f2e41"/>
    <path id="Path_863" data-name="Path 863" d="M453.927,392.987l-4.233,3.713a.307.307,0,1,1-.405-.462l4.233-3.713-.81-.924-4.233,3.713a.307.307,0,0,1-.405-.462l4.233-3.713-.81-.924-4.233,3.713a.307.307,0,0,1-.405-.462l4.233-3.713-1.013-1.155-5.982,5.247a3.1,3.1,0,0,0-.659,3.847l-18.062,15.843,1.62,1.847,18.05-15.832a3,3,0,0,0,3.839-.1l6.055-5.311Z" transform="translate(-387.132 -332.558)" fill="#e6e6e6"/>
    <path id="Path_864" data-name="Path 864" d="M422.51,328l.437,8.166a2.1,2.1,0,0,1-2.284,2.2h0a2.1,2.1,0,0,1-1.9-1.9l-.792-9.029-6.238-21.172.189-13.611,7.372.378Z" transform="translate(-376.284 -256.253)" fill="#ffb9b9"/>
    <path id="Path_865" data-name="Path 865" d="M418.395,242.246c-2.243-2.152-5.2-2.231-8.507-1.323V230.763a4.586,4.586,0,0,1,4.586-4.586h0a4.2,4.2,0,0,1,4.2,4.3Z" transform="translate(-374.816 -203.395)" fill="#006aff"/>
  </g>
</svg>
