<svg xmlns="http://www.w3.org/2000/svg" width="172.667" height="116.755" viewBox="0 0 172.667 116.755">
  <g id="undraw_diet_ghvw" transform="translate(0 0)">
    <ellipse id="Ellipse_402" data-name="Ellipse 402" cx="27.531" cy="2.073" rx="27.531" ry="2.073" transform="translate(117.606 112.61)" fill="#e6e6e6"/>
    <path id="Path_982" data-name="Path 982" d="M246.638,320.244a3.894,3.894,0,0,0-3.9-3.835H223.166a3.9,3.9,0,0,0-3.894,3.773,3.81,3.81,0,0,0,1.478,3.062.852.852,0,0,1,.338.78,3.792,3.792,0,0,0-.034.508v13.54a3.8,3.8,0,0,0,3.8,3.8h16.085a3.8,3.8,0,0,0,3.8-3.8V324.532a3.819,3.819,0,0,0-.026-.445.823.823,0,0,1,.346-.76A3.813,3.813,0,0,0,246.638,320.244Z" transform="translate(-218.596 -288.088)" fill="#3f3d56"/>
    <path id="Path_983" data-name="Path 983" d="M248.645,322.722a3.036,3.036,0,0,0-3.038-2.636H226.015a3.044,3.044,0,0,0-2.993,2.357,3,3,0,0,0,1.432,3.227.824.824,0,0,1,.386.933,2.938,2.938,0,0,0-.1.779V340.92a2.969,2.969,0,0,0,2.418,2.917,3,3,0,0,0,.55.051h16.085a2.935,2.935,0,0,0,.8-.111,2.968,2.968,0,0,0,2.164-2.856V327.381a2.956,2.956,0,0,0-.092-.731.848.848,0,0,1-.025-.2.825.825,0,0,1,.438-.728h0A2.99,2.99,0,0,0,248.645,322.722Z" transform="translate(-221.451 -290.937)" fill="#006aff"/>
    <path id="Path_984" data-name="Path 984" d="M252.891,328.678v-1.273h-2.164v-7.319h-1.273v7.319h-6.81v-7.319h-1.273v7.319h-6.81v-7.319h-1.273v7.319H230.87v1.273h2.418V332.5H230.87v1.273h2.418v3.819H230.87v1.273h2.418v4.977a3.005,3.005,0,0,0,.55.051h.723v-5.028h6.81v5.028h1.273v-5.028h6.81v5.028h.47a2.937,2.937,0,0,0,.8-.111v-4.917h2.164v-1.273h-2.164V333.77h2.164V332.5h-2.164v-3.819Zm-18.329,0h6.81V332.5h-6.81Zm0,8.91V333.77h6.81v3.819Zm14.893,0h-6.81V333.77h6.81Zm0-5.091h-6.81v-3.819h6.81Z" transform="translate(-227.585 -290.938)" opacity="0.2"/>
    <path id="Path_985" data-name="Path 985" d="M246.856,190.527a13.594,13.594,0,0,1-27.188,0Z" transform="translate(-218.904 -190.527)" fill="#006aff"/>
    <path id="Path_986" data-name="Path 986" d="M239.9,199.036c0,.355-.126.644-.282.644s-.282-.288-.282-.644a.383.383,0,1,1,.563,0Z" transform="translate(-234.144 -196.623)" fill="#3f3d56"/>
    <path id="Path_987" data-name="Path 987" d="M303.178,209.047c0,.355-.126.644-.282.644s-.282-.288-.282-.644a.383.383,0,1,1,.563,0Z" transform="translate(-283.189 -204.382)" fill="#3f3d56"/>
    <path id="Path_988" data-name="Path 988" d="M256.7,203.327c0,.355-.126.644-.282.644s-.282-.288-.282-.644a.383.383,0,1,1,.563,0Z" transform="translate(-247.167 -199.949)" fill="#3f3d56"/>
    <path id="Path_989" data-name="Path 989" d="M281.726,225.851c0,.355-.126.644-.282.644s-.282-.288-.282-.644a.383.383,0,1,1,.563,0Z" transform="translate(-266.563 -217.405)" fill="#3f3d56"/>
    <path id="Path_990" data-name="Path 990" d="M254.911,222.991c0,.355-.126.644-.282.644s-.282-.288-.282-.644a.383.383,0,1,1,.563,0Z" transform="translate(-245.781 -215.189)" fill="#3f3d56"/>
    <path id="Path_991" data-name="Path 991" d="M317.479,196.176c0,.355-.126.644-.282.644s-.282-.288-.282-.644a.383.383,0,1,1,.563,0Z" transform="translate(-294.272 -194.407)" fill="#3f3d56"/>
    <path id="Path_992" data-name="Path 992" d="M294.6,231.571c0,.355-.126.644-.282.644s-.282-.288-.282-.644a.383.383,0,1,1,.563,0Z" transform="translate(-276.538 -221.839)" fill="#3f3d56"/>
    <path id="Path_993" data-name="Path 993" d="M230.63,204.885a14.375,14.375,0,0,1-14.358-14.358H217.8a12.83,12.83,0,0,0,25.66,0h1.528a14.375,14.375,0,0,1-14.358,14.358Z" transform="translate(-216.272 -190.527)" fill="#3f3d56"/>
    <rect id="Rectangle_1565" data-name="Rectangle 1565" width="4.5" height="4.5" transform="translate(42.932 4.929)" fill="#3f3d56"/>
    <rect id="Rectangle_1566" data-name="Rectangle 1566" width="36.223" height="0.45" transform="translate(55.306 6.954)" fill="#3f3d56"/>
    <rect id="Rectangle_1567" data-name="Rectangle 1567" width="4.5" height="4.5" transform="translate(42.932 38.8)" fill="#3f3d56"/>
    <rect id="Rectangle_1568" data-name="Rectangle 1568" width="36.223" height="0.45" transform="translate(55.306 40.825)" fill="#3f3d56"/>
    <rect id="Rectangle_1569" data-name="Rectangle 1569" width="4.5" height="4.5" transform="translate(42.932 72.436)" fill="#3f3d56"/>
    <rect id="Rectangle_1570" data-name="Rectangle 1570" width="36.223" height="0.45" transform="translate(55.306 74.461)" fill="#3f3d56"/>
    <path id="Path_994" data-name="Path 994" d="M764.222,320.214l-5.748,4.531-12.18-4.281s-4.141-4.658-6.483-1.189c-.8,1.188,4.451,3.383,4.947,3.587,1.239.51,13.107,7.021,14.27,6.167s7.706-5.175,7.706-5.175Z" transform="translate(-621.958 -289.314)" fill="#a0616a"/>
    <path id="Path_995" data-name="Path 995" d="M884.715,234.636c-5.448-2.036-10.63-3-14.831,0v-9.678a7.416,7.416,0,0,1,7.416-7.416h0a7.416,7.416,0,0,1,7.416,7.416Z" transform="translate(-722.83 -211.464)" fill="#2f2e41"/>
    <path id="Path_996" data-name="Path 996" d="M811.711,383.773l-.445,3.116s-1.113,3.339,0,9.571l-17.917,48.855,13.243,3.784,6.566-26.709,9.237-20.366-.89,23.148-4.674,24.706,13.8-.556,4.021-42.363a37.526,37.526,0,0,0-3.362-19.534c-1.116-2.369-2.315-4.236-3.4-4.507C824.62,382.1,811.711,383.773,811.711,383.773Z" transform="translate(-663.514 -339.459)" fill="#2f2e41"/>
    <path id="Path_997" data-name="Path 997" d="M768.541,659.546l-4.563,4.9s-8.792,4.563-2.56,5.119,8.347-1.892,8.347-1.892,7.79-.556,7.679-1.669-.668-4.785-.668-4.785Z" transform="translate(-637.038 -554.024)" fill="#2f2e41"/>
    <path id="Path_998" data-name="Path 998" d="M909.725,662.877v3.45a9.333,9.333,0,0,1,0,1.781c-.111.334-1.781,4.452,3.784,3.561s3.339-4.34,3.339-4.34l-1.335-5.008Z" transform="translate(-753.46 -556.174)" fill="#2f2e41"/>
    <circle id="Ellipse_403" data-name="Ellipse 403" cx="5.592" cy="5.592" r="5.592" transform="translate(148.809 9.091)" fill="#a0616a"/>
    <path id="Path_999" data-name="Path 999" d="M892.512,267.273s-.779,7.345,0,8.68-7.9-1.335-7.9-1.335,1.892-5.008,1.224-7.011S892.512,267.273,892.512,267.273Z" transform="translate(-734.243 -249.501)" fill="#a0616a"/>
    <path id="Path_1000" data-name="Path 1000" d="M851.326,305.553l1.781,4.9-16.582,1.892s-1.781-.334-1.781-1.781-1.892-6.566-1.892-6.566-4.634-3.756-6.859-4.757c-.807-.363.4-.213,1.079-1.753.2-.463.447-.952.713-1.447.217-.406.451-.818.69-1.224.29-.5.59-.983.88-1.447.879-1.4,1.682-2.583,1.939-3.06.779-1.447,8.1-1.576,8.1-1.576,2.094,1.318,8.145,1.576,8.145,1.576a37.329,37.329,0,0,1,5.9,3.06C853.564,293.461,851.326,305.553,851.326,305.553Z" transform="translate(-688.607 -266.636)" fill="#e6e6e6"/>
    <path id="Path_1001" data-name="Path 1001" d="M884.548,220.3v-.133l-.158.009a7.421,7.421,0,0,0-6.378-1.275,7.39,7.39,0,0,1,2.846,1.471l-5.36.3-2.262,5.028h1.531L876,223.436V225.7h5.178l.352-1.76.978,1.76h1.017c.006.125.016.25.016.377l-1.006,9.678,4.776-2.011v-7.667A7.4,7.4,0,0,0,884.548,220.3Z" transform="translate(-725.428 -212.33)" fill="#2f2e41"/>
    <path id="Path_1002" data-name="Path 1002" d="M940.344,339.758l-.334,8.792-.89,17.027s1.224,7.345-1.892,7.234-.779-8.68-.779-8.68l-.89-13.466.89-9.459Z" transform="translate(-773.729 -306.184)" fill="#a0616a"/>
    <path id="Path_1003" data-name="Path 1003" d="M931.267,310.425c0,1-5.62.723-5.62.723L922.7,295.735a37.331,37.331,0,0,1,5.9,3.06,5.227,5.227,0,0,1,.987,1.447c.132.357.258.771.377,1.224s.228.938.332,1.447A59.211,59.211,0,0,1,931.267,310.425Z" transform="translate(-763.762 -272.065)" fill="#e6e6e6"/>
    <path id="Path_1004" data-name="Path 1004" d="M231.539,506.262l-8.518-.882a6.8,6.8,0,1,0-.03,2.706l8.548-.786Z" transform="translate(-217.332 -432.147)" fill="#ccc"/>
    <path id="Path_1005" data-name="Path 1005" d="M270.206,509a5.543,5.543,0,0,0,6.9-5q.007-.143.007-.288t-.007-.288a5.543,5.543,0,0,0-6.9-5l-11.361,2.794a2.491,2.491,0,1,0,0,4.981Z" transform="translate(-247.337 -429.033)" fill="#006aff"/>
  </g>
</svg>
