<svg xmlns="http://www.w3.org/2000/svg" width="153.487" height="148" viewBox="0 0 153.487 148">
  <g id="undraw_ice_cream_s2rh" transform="translate(0 0)">
    <path id="Path_801" data-name="Path 801" d="M387.862,585.606l-43.215.143c-11.465-3.445-20.858-15.41-20.917-33.349a50.794,50.794,0,0,1,.61-8.072l34.808-7.82L386,530.476a53.4,53.4,0,0,1,5.516,5.735l-25.677,13.558-12.113,6.4,13.611-4.7,28.251-9.746a68.5,68.5,0,0,1,4.7,8.422l-8.524,8.809,9.643-6.313.123.291C407.638,567.441,400.056,585.566,387.862,585.606Z" transform="translate(-299.072 -441.303)" fill="#f2f2f2"/>
    <path id="Path_802" data-name="Path 802" d="M384.2,480.607c-6.535,1.877-14.57,4.248-22.831,6.713-11.944,3.565-24.36,7.327-33.4,10.077l.006-.032a12.425,12.425,0,0,1,2.293-5.321c6.7-8.706,15.223-14.788,24.713-17.047h0a35.612,35.612,0,0,1,8.145-.972A37.572,37.572,0,0,1,384.2,480.607Z" transform="translate(-302.517 -395.495)" fill="#f2f2f2"/>
    <ellipse id="Ellipse_342" data-name="Ellipse 342" cx="29.411" cy="4.242" rx="29.411" ry="4.242" transform="translate(24.27 139.516)" fill="#3f3d56"/>
    <path id="Path_803" data-name="Path 803" d="M229.229,548.443v6.6l4.713.566,2.828-3.582-2.262-4.525Z" transform="translate(-186.011 -444.277)" fill="#fbbebe"/>
    <path id="Path_804" data-name="Path 804" d="M324.229,694.877l2.451,6.6,4.525-1.508-3.394-5.467Z" transform="translate(-263.1 -563.562)" fill="#fbbebe"/>
    <path id="Path_805" data-name="Path 805" d="M384.86,454.145s-24.51-2.451-23.755,4.336,11.5,26.206,11.5,26.206l7.164-1.32s-5.09-7.918-4.713-10.558-1.131-6.222-1.131-6.222l3.582.566,2.074,3.205,4.336,22.247,6.6,19.985,4.9-1.32s-2.639-8.3-1.885-10.935-3.582-12.82-3.582-12.82l3.017-17.722s5.845-1.7,4.148-7.541S384.86,454.145,384.86,454.145Z" transform="translate(-329.388 -379.013)" fill="#2f2e41"/>
    <path id="Path_806" data-name="Path 806" d="M397.44,619.813s-2.828-2.262-2.639-1.32a6.766,6.766,0,0,1,0,2.074l-2.64,5.845s-6.41,5.845-.566,6.033,8.861-5.845,8.861-5.845,8.107-6.033,7.164-6.976-5.89-3.108-5.89-3.108S400.08,621.132,397.44,619.813Z" transform="translate(-352.149 -511.122)" fill="#2f2e41"/>
    <path id="Path_807" data-name="Path 807" d="M486.493,766.036s-2.639-2.451-2.828-1.32-.377,2.639-.377,2.639l-3.959,3.771s-5.656,5.468-.754,5.656a9.478,9.478,0,0,0,7.541-3.205s7.164-1.508,6.787-2.639-2.268-5.508-3.113-5.676S488.755,767.544,486.493,766.036Z" transform="translate(-423.102 -631.139)" fill="#2f2e41"/>
    <circle id="Ellipse_343" data-name="Ellipse 343" cx="5.845" cy="5.845" r="5.845" transform="translate(48.497 36.293)" fill="#fbbebe"/>
    <path id="Path_808" data-name="Path 808" d="M467.178,296.32s2.451,6.6,2.262,7.164,7.73-4.713,7.73-4.713-3.394-.754-3.394-3.771Z" transform="translate(-415.476 -250.223)" fill="#fbbebe"/>
    <path id="Path_809" data-name="Path 809" d="M560.08,353a36.935,36.935,0,0,1,3.959,4.525c.566,1.131,13.386,15.46,13.386,15.46s8.484,9.992,5.09,10.181-7.73-7.918-7.73-7.918-12.066-8.861-12.632-10.935l-6.976-7.164Z" transform="translate(-486.885 -297.288)" fill="#fbbebe"/>
    <path id="Path_810" data-name="Path 810" d="M459.563,316.874h-2.074l-2.828,4.525s-2.828,2.451-.754,7.541a112.351,112.351,0,0,1,3.771,11.5s6.033.754,7.164,2.639S472.384,351,472.384,351a31.682,31.682,0,0,0,.754-9.8c-.377-5.845,0-14.706,0-14.706l-.377-11.689s-7.282-1.688-7.789-1.41S459.563,316.874,459.563,316.874Z" transform="translate(-404.091 -265.121)" fill="#575a89"/>
    <path id="Path_811" data-name="Path 811" d="M542.178,321.566l2.828-.566s3.017,1.885,5.845,7.353c0,0-6.033,3.959-6.6,3.771S542.178,321.566,542.178,321.566Z" transform="translate(-476.336 -271.321)" fill="#575a89"/>
    <path id="Path_812" data-name="Path 812" d="M436.119,388.754s-4.336,6.976-3.017,9.615,3.017,2.451,3.017,2.451,3.205-.566,3.205-3.205,1.32-2.828,1.32-2.828,8.3-6.787,5.09-6.787-7.541,4.713-7.541,4.713L438,388.377Z" transform="translate(-387.622 -325.689)" fill="#fbbebe"/>
    <path id="Path_813" data-name="Path 813" d="M448.819,355a4.961,4.961,0,0,0-3.394,3.771,16.464,16.464,0,0,0-.377,4.525l3.771-.377Z" transform="translate(-397.494 -298.911)" fill="#575a89"/>
    <path id="Path_814" data-name="Path 814" d="M437.178,420.156s3.017-3.959,3.394-3.394Z" transform="translate(-391.132 -348.983)" opacity="0.1"/>
    <path id="Path_815" data-name="Path 815" d="M453.144,236s-3.1-3.1-6.083-1.018-4.373,4.06-4.04,5.4a19.646,19.646,0,0,0,1.263,3.2s-.621-2.788,1.888-3.061a21.837,21.837,0,0,0,5.939-2.028l2.481,4.956s.3-1.171,1.231-.862S455.864,236.3,453.144,236Z" transform="translate(-395.833 -200.938)" fill="#2f2e41"/>
    <path id="Path_816" data-name="Path 816" d="M353.009,766.51c0,2.749-1.634,3.709-3.65,3.709l-.14,0c-.093,0-.186-.006-.277-.013-1.819-.129-3.233-1.138-3.233-3.695,0-2.646,3.381-5.984,3.635-6.232h0l.015-.014S353.009,763.761,353.009,766.51Z" transform="translate(-316.908 -627.768)" fill="#006aff"/>
    <path id="Path_817" data-name="Path 817" d="M358.05,769.8l1.335-1.865L358.047,770l0,.214c-.093,0-.186-.006-.277-.013l.144-2.75v-.021l0,0,.014-.26-1.342-2.075,1.346,1.881,0,.055.109-2.078-1.149-2.145,1.163,1.78.113-4.308v0l-.019,3.4,1.144-1.347-1.148,1.64-.03,1.86,1.068-1.786-1.072,2.059-.017,1.034,1.55-2.485-1.556,2.846Z" transform="translate(-325.733 -627.769)" fill="#3f3d56"/>
    <path id="Path_818" data-name="Path 818" d="M644.293,277.166s-1.16,3.607-2.97,8.789c-.585,1.683-1.241,3.531-1.948,5.476-.985,2.708-2.069,5.606-3.2,8.5-.7,1.783-1.416,3.564-2.142,5.3-3.9,9.326-8.055,17.4-10.777,17.518-6.115.254-19.215-40.663-20.645-45.185-.084-.264-.127-.4-.127-.4Z" transform="translate(-525.269 -235.751)" fill="#3f3d56"/>
    <path id="Path_819" data-name="Path 819" d="M730.4,285.955c-.585,1.683-1.241,3.531-1.948,5.476l-16.2-14.265h8.166Z" transform="translate(-614.344 -235.751)" opacity="0.1"/>
    <path id="Path_820" data-name="Path 820" d="M636.17,299.933c-.7,1.783-1.416,3.564-2.142,5.3L602.606,277.57c-.084-.264-.127-.4-.127-.4h7.834Z" transform="translate(-525.269 -235.751)" opacity="0.1"/>
    <path id="Path_821" data-name="Path 821" d="M682.053,62.676c-1.917,1.518-4.948.944-6.79,2.552a4.835,4.835,0,0,0-1.252,4.618,13.44,13.44,0,0,0,2.177,4.487A11.554,11.554,0,0,0,678.371,77a10.847,10.847,0,0,0,4.413,1.886A54.966,54.966,0,0,0,693.2,80.4c1.566.075,3.339,0,4.393-1.159a5.111,5.111,0,0,0,1.041-2.495,6.992,6.992,0,0,0-.144-4.21,7.115,7.115,0,0,0-2.331-2.588c-2.923-2.237-6.366-4.089-8.15-7.308-.709-1.28-1.146-2.763-2.221-3.755a6.388,6.388,0,0,0-6.168-.959C679.872,58.5,683.2,61.765,682.053,62.676Z" transform="translate(-583.211 -57.5)" fill="#006aff"/>
    <path id="Path_822" data-name="Path 822" d="M628.333,131.664a12,12,0,0,0-.613,6.05c.631,2.63,2.937,4.6,5.466,5.556a25.078,25.078,0,0,0,7.99,1.17l14.149.528a17.086,17.086,0,0,1,5.262.751c1.377.5,3.014,1.333,4.163.421a3.262,3.262,0,0,0,.94-1.723,9.871,9.871,0,0,0,.129-6.37,8.474,8.474,0,0,0-5.585-4.535,40.206,40.206,0,0,0-7.351-1.066,44.308,44.308,0,0,1-7.391-1.463,12.706,12.706,0,0,1-5.564-2.831c-.809-.8-1.421-1.776-2.183-2.621C633.376,120.692,629.407,127.939,628.333,131.664Z" transform="translate(-545.598 -111.397)" fill="#006aff"/>
    <path id="Path_823" data-name="Path 823" d="M593,202.918a8.757,8.757,0,0,0-1.827,14.88,13.954,13.954,0,0,0,7.705,2.476,66.106,66.106,0,0,0,8.017-.072l23.632-1.171c1.385-.069,2.953-.228,3.8-1.327a3.928,3.928,0,0,0,.518-2.976,10.2,10.2,0,0,0-6.876-8.062,19.973,19.973,0,0,0-4.148-.685l-10.13-.948a23.9,23.9,0,0,1-4.059-.616c-4.006-1.089-7.586-4.268-11.711-3.8-2.8.319-5.1,2.278-7.135,4.228" transform="translate(-513.379 -173.598)" fill="#006aff"/>
    <path id="Path_824" data-name="Path 824" d="M685.467,128.361s3.307,5.97,20.267,8.38" transform="translate(-592.61 -115.001)" opacity="0.1"/>
    <path id="Path_825" data-name="Path 825" d="M635.707,211.293s6.144,6.215,31.5,6.215" transform="translate(-552.232 -182.298)" opacity="0.1"/>
    <ellipse id="Ellipse_344" data-name="Ellipse 344" cx="1.619" cy="0.54" rx="1.619" ry="0.54" transform="translate(96.094 9.313)" fill="#3f3d56"/>
    <ellipse id="Ellipse_345" data-name="Ellipse 345" cx="1.619" cy="0.54" rx="1.619" ry="0.54" transform="translate(101.489 12.82)" fill="#3f3d56"/>
    <ellipse id="Ellipse_346" data-name="Ellipse 346" cx="1.619" cy="0.54" rx="1.619" ry="0.54" transform="translate(107.694 16.597)" fill="#3f3d56"/>
    <ellipse id="Ellipse_347" data-name="Ellipse 347" cx="1.619" cy="0.54" rx="1.619" ry="0.54" transform="translate(86.113 18.216)" fill="#3f3d56"/>
    <ellipse id="Ellipse_348" data-name="Ellipse 348" cx="1.619" cy="0.54" rx="1.619" ry="0.54" transform="translate(99.871 23.341)" fill="#3f3d56"/>
    <ellipse id="Ellipse_349" data-name="Ellipse 349" cx="1.619" cy="0.54" rx="1.619" ry="0.54" transform="translate(80.448 33.861)" fill="#3f3d56"/>
    <ellipse id="Ellipse_350" data-name="Ellipse 350" cx="1.619" cy="0.54" rx="1.619" ry="0.54" transform="translate(90.699 23.88)" fill="#3f3d56"/>
    <ellipse id="Ellipse_351" data-name="Ellipse 351" cx="1.619" cy="0.54" rx="1.619" ry="0.54" transform="translate(84.494 37.908)" fill="#3f3d56"/>
    <ellipse id="Ellipse_352" data-name="Ellipse 352" cx="1.619" cy="0.54" rx="1.619" ry="0.54" transform="translate(95.015 35.48)" fill="#3f3d56"/>
    <ellipse id="Ellipse_353" data-name="Ellipse 353" cx="1.753" cy="3.642" rx="1.753" ry="3.642" transform="translate(101.219 42.224)" fill="#006aff"/>
    <ellipse id="Ellipse_354" data-name="Ellipse 354" cx="1.753" cy="3.642" rx="1.753" ry="3.642" transform="translate(103.378 43.573)" fill="#006aff"/>
    <path id="Path_826" data-name="Path 826" d="M731.486,360.182a11.9,11.9,0,0,1,2.28-4.307c1.745-2.305,5.178-5.735,11.621-8.985a29.222,29.222,0,0,0,14.964-17.841l.326.074a25.668,25.668,0,0,1-2.889,6.677,29.928,29.928,0,0,1-12.251,11.389c-12.186,6.147-13.711,12.992-13.725,13.06Z" transform="translate(-629.953 -277.852)" fill="#3f3d56"/>
    <circle id="Ellipse_355" data-name="Ellipse 355" cx="2.173" cy="2.173" r="2.173" transform="translate(128.851 45.613)" fill="#006aff"/>
    <circle id="Ellipse_356" data-name="Ellipse 356" cx="2.173" cy="2.173" r="2.173" transform="translate(128.421 56.156)" fill="#3f3d56"/>
    <circle id="Ellipse_357" data-name="Ellipse 357" cx="2.173" cy="2.173" r="2.173" transform="translate(121.353 56.895)" fill="#006aff"/>
    <circle id="Ellipse_358" data-name="Ellipse 358" cx="2.173" cy="2.173" r="2.173" transform="translate(122.451 64.068)" fill="#006aff"/>
    <circle id="Ellipse_359" data-name="Ellipse 359" cx="2.173" cy="2.173" r="2.173" transform="translate(112.286 64.215)" fill="#3f3d56"/>
    <path id="Path_827" data-name="Path 827" d="M736.3,481.284s2.043-5.4,9.551-3.909Z" transform="translate(-633.862 -398.003)" fill="#3f3d56"/>
    <path id="Path_828" data-name="Path 828" d="M715.486,446.125s3.142-4.843-2.5-10.011Z" transform="translate(-614.938 -364.731)" fill="#3f3d56"/>
    <path id="Path_829" data-name="Path 829" d="M775.194,412.425l-3.6-1.42-3.6-1.419,3.028-2.405,3.028-2.406.569,3.825Z" transform="translate(-623.205 -328.461)" fill="#f2f2f2"/>
    <path id="Path_830" data-name="Path 830" d="M7.194,282.425l-3.6-1.419L0,279.586l3.028-2.405,3.028-2.406.569,3.825Z" transform="translate(0 -222.97)" fill="#f2f2f2"/>
    <path id="Path_831" data-name="Path 831" d="M680.194,523.425l-3.6-1.419-3.6-1.419,3.028-2.405,3.028-2.406.569,3.825Z" transform="translate(-546.116 -418.533)" fill="#f2f2f2"/>
    <path id="Path_832" data-name="Path 832" d="M784.859,609.73l-3.4,1.847-3.4,1.847.1-3.866.1-3.866,3.3,2.018Z" transform="translate(-631.372 -491.498)" fill="#f2f2f2"/>
    <path id="Path_833" data-name="Path 833" d="M105.859,217.73l-3.4,1.847-3.4,1.847.1-3.866.1-3.866,3.3,2.018Z" transform="translate(-80.388 -173.404)" fill="#f2f2f2"/>
  </g>
</svg>
