<svg xmlns="http://www.w3.org/2000/svg" width="190.896" height="147.773" viewBox="0 0 190.896 147.773">
  <g id="undraw_special_event_4aj8" transform="translate(0)">
    <path id="Path_921" data-name="Path 921" d="M185.655,109.093a70.375,70.375,0,0,1-23.085-3.875c-9.954-3.442-18.108-8.188-24.236-14.109-11.592-11.2-21.1-12.887-27.026-12.331A19.005,19.005,0,0,0,101.114,82.7l-.255-.285A19.388,19.388,0,0,1,111.247,78.4a25.657,25.657,0,0,1,11.915,1.883c5.079,2.012,10.273,5.562,15.438,10.552,6.088,5.882,14.195,10.6,24.1,14.022a72.382,72.382,0,0,0,56.2-4.174,63.362,63.362,0,0,1,17.061-6,40.5,40.5,0,0,1,19.6.891c13.3,4.138,22.384,3.918,27.662,3.006,5.7-.984,8.28-2.955,8.305-2.974l.235.3c-.107.083-2.686,2.049-8.475,3.049-5.32.92-14.469,1.142-27.841-3.018-13.539-4.212-27.251.442-36.37,5.088a73.407,73.407,0,0,1-27.849,7.857Q188.428,109.093,185.655,109.093Z" transform="translate(-100.859 -75.492)" fill="#3f3d56"/>
    <circle id="Ellipse_369" data-name="Ellipse 369" cx="3.876" cy="3.876" r="3.876" transform="translate(80.148 30.596)" fill="#006aff"/>
    <circle id="Ellipse_370" data-name="Ellipse 370" cx="3.876" cy="3.876" r="3.876" transform="translate(140.193 15.107)" fill="#006aff"/>
    <circle id="Ellipse_371" data-name="Ellipse 371" cx="3.876" cy="3.876" r="3.876" transform="translate(15.323 0)" fill="#006aff"/>
    <path id="Path_922" data-name="Path 922" d="M685.6,389.716v37.447h5.888v-34.15h23.552v34.15h5.888V352.269h-5.888c-1.951,0-4.946,10.161-4.946,20.372,0,7.7.9,14.292,2.177,17.075Zm29.439,0h-.057c.019-.042.038-.086.057-.13Z" transform="translate(-573.786 -297.071)" fill="#3f3d56"/>
    <path id="Path_923" data-name="Path 923" d="M762.693,255.342h0c-4.833,0-8.751,4.348-8.751,9.712v6.814h2.1l1.213-2.525-.3,2.525h13.471l1.1-2.3-.276,2.3h1.517v-5.351C772.763,260.345,768.254,255.342,762.693,255.342Z" transform="translate(-629.056 -218.679)" fill="#2f2e41"/>
    <path id="Path_924" data-name="Path 924" d="M622.717,488.168l-5.373,2.284L598.673,505.63a5.5,5.5,0,0,0-1.209,2.955c-.134,1.746-5.776,10.88-3.761,12.089s9.268,4.836,9.671,2.418,2.552-12.761,2.552-12.761l18-16.119Z" transform="translate(-499.108 -406.983)" fill="#2f2e41"/>
    <path id="Path_925" data-name="Path 925" d="M579.408,657.994l-2.284,6.716s2.418,2.552,1.209,4.7V676.8h-1.881l-.537-3.9s-2.142,3.846-3.224,3.9c-2.268.1-6.759.91-6.893-.3s3.4-2.387,3.4-2.387l3.761-10.343,1.612-6.313Z" transform="translate(-476.888 -543.899)" fill="#2f2e41"/>
    <path id="Path_926" data-name="Path 926" d="M680.757,451.766s1.209,11.821-2.284,13.97-18.94,9-18.94,9,6.582,6.179,5.239,7.656-7.388,5.507-8.194,4.7-9.806-10.477-8.731-13.567,15.985-13.164,15.985-13.164l1.746-6.313.537-5.1,5.642-3.627Z" transform="translate(-543.178 -372.327)" fill="#2f2e41"/>
    <circle id="Ellipse_372" data-name="Ellipse 372" cx="5.6" cy="5.6" r="5.6" transform="translate(125.825 40.718)" fill="#ffb9b9"/>
    <path id="Path_927" data-name="Path 927" d="M783.57,317.825s-.269,5.1,3.9,6.716-10.343,12.089-10.343,12.089V324.944s1.881-2.015,0-5.1Z" transform="translate(-647.804 -269.214)" fill="#ffb9b9"/>
    <path id="Path_928" data-name="Path 928" d="M825.664,443.211l-1.075,5.239-3.224,18s2.687,7.656-.94,7.522-1.881-8.328-1.881-8.328l1.881-14.91v-5.776Z" transform="translate(-680.966 -370.623)" fill="#ffb9b9"/>
    <path id="Path_929" data-name="Path 929" d="M700.333,429.865l-1.209,4.7-5.507,13.3s-3.761,6.313-.672,6.179,3.09-6.179,3.09-6.179l6.313-10.746v-6.045Z" transform="translate(-578.738 -359.829)" fill="#ffb9b9"/>
    <path id="Path_930" data-name="Path 930" d="M713.635,634.978l4.433,4.164s3.089-.672,4.3,2.955,2.015,5.91,2.015,5.91l-1.612.94-2.015-2.821s-1.209,5.1-2.418,5.507-7.253,3.089-6.716,0l2.955-4.3s.4-4.836-.806-5.239-4.433-4.433-4.433-4.433Z" transform="translate(-592.98 -525.719)" fill="#2f2e41"/>
    <path id="Path_931" data-name="Path 931" d="M756.622,473.923S744,469.356,743.19,469.759a6.059,6.059,0,0,1-1.892.491l.011-1.834s4.164-1.478,6.448-.537,9.268,5.1,9.268,5.1Z" transform="translate(-618.83 -390.319)" fill="#3f3d56"/>
    <path id="Path_932" data-name="Path 932" d="M748.91,359.213s3.627-4.164,4.7-6.716a6.6,6.6,0,0,1,3.486-3.428s8.066,1.816,7.931,5.04-5.1,8.194-5.1,8.194.672,17.865-2.955,17.6a7.779,7.779,0,0,1-1.612-3.224c-.4-1.881-12.9-3.9-12.9-3.9s-1.075,1.881-1.209,1.075,1.075-20.552,1.075-20.552l6.406-4.234Z" transform="translate(-618.786 -294.483)" fill="#d0cde1"/>
    <path id="Path_933" data-name="Path 933" d="M832.449,367.636l.09.05a1.853,1.853,0,0,1,.946,1.616v9.969a1.868,1.868,0,0,0,.664,1.422c.517.44,1,1.074.007,1.4-1.612.537-7.925,3.224-8.06,2.284s-.4-2.015,0-2.015c.315,0,2.2-9.632,3.706-13.751a1.853,1.853,0,0,1,2.648-.98Z" transform="translate(-687.24 -309.308)" fill="#d0cde1"/>
    <path id="Path_934" data-name="Path 934" d="M731.305,368.752l-1.88.537-2.149,9.268s-2.552.537-1.746,1.478a41.019,41.019,0,0,0,4.164,3.358Z" transform="translate(-605.95 -310.402)" fill="#d0cde1"/>
    <path id="Path_935" data-name="Path 935" d="M771.3,261.516a4.589,4.589,0,0,0-3.621-1.848h-.172c-3.312,0-6,3-6,6.7h1.11L762.8,265l.263,1.364h6.583l.552-1.154-.138,1.154h1.3q.906,4.5-2.6,9h2.206l1.1-2.309-.276,2.309h4.205l.827-5.31A8.974,8.974,0,0,0,771.3,261.516Z" transform="translate(-635.18 -222.178)" fill="#2f2e41"/>
    <path id="Path_936" data-name="Path 936" d="M183.912,418.226c1.413-3.077,2.407-10.37,2.407-18.879,0-11.29-3.311-22.525-5.468-22.525h-6.51V459.63h6.51V421.872h26.04V459.63h6.51v-41.4Zm-3.061-.143c.021.048.042.1.063.143h-.063Z" transform="translate(-160.289 -316.929)" fill="#3f3d56"/>
    <path id="Path_937" data-name="Path 937" d="M354.16,514.342s7.84,3.251,5.354,5.163-7.649-2.295-7.458-2.868-.765-1.912-.765-1.912Z" transform="translate(-303.403 -428.152)" fill="#9f616a"/>
    <path id="Path_938" data-name="Path 938" d="M326.248,380.342l2.486,2.295.574,6.693,1.912,7.075s3.251,6.693,2.677,8.031a1.16,1.16,0,0,0,.574,1.721l-4.4,1.721s-4.781-5.354-4.781-6.5S326.248,380.342,326.248,380.342Z" transform="translate(-282.375 -319.776)" fill="#575a88"/>
    <path id="Path_939" data-name="Path 939" d="M326.248,380.342l2.486,2.295.574,6.693,1.912,7.075s3.251,6.693,2.677,8.031a1.16,1.16,0,0,0,.574,1.721l-4.4,1.721s-4.781-5.354-4.781-6.5S326.248,380.342,326.248,380.342Z" transform="translate(-282.375 -319.776)" opacity="0.1"/>
    <path id="Path_940" data-name="Path 940" d="M448.41,733.063s-.956,4.4-1.147,4.781,3.633,1.721,3.633,1.721l4.589-3.251s-1.912-4.207-1.912-4.972Z" transform="translate(-381.016 -603.656)" fill="#575a88"/>
    <path id="Path_941" data-name="Path 941" d="M265.581,516.342l1.339,1.53s27.728,3.442,28.3,8.8,4.589,30.6,2.295,31.361-8.223,3.633-8.223,2.1-3.824-22.565-3.06-26.389c0,0-33.082-4.207-33.847-8.988s.765-6.884.765-6.884Z" transform="translate(-223.237 -429.769)" fill="#2f2e41"/>
    <path id="Path_942" data-name="Path 942" d="M265.581,516.342l1.339,1.53s27.728,3.442,28.3,8.8,4.589,30.6,2.295,31.361-8.223,3.633-8.223,2.1-3.824-22.565-3.06-26.389c0,0-33.082-4.207-33.847-8.988s.765-6.884.765-6.884Z" transform="translate(-223.237 -429.769)" opacity="0.1"/>
    <path id="Path_943" data-name="Path 943" d="M442.362,752.316s-.765-1.721-1.147-1.147-1.721,7.267-.383,7.267,13.577,3.06,15.3,2.677,4.972.191,4.589-1.721a2.684,2.684,0,0,0-2.295-2.1s-7.075-4.207-7.458-6.31-2.486-.956-2.486-.956v1.339S444.465,754.419,442.362,752.316Z" transform="translate(-375.35 -618.51)" fill="#2f2e41"/>
    <path id="Path_944" data-name="Path 944" d="M251.731,299.006s1.339,6.5-1.53,7.075,3.633,4.4,3.633,4.4l4.207,2.295,3.06-3.06s-2.773-5.641-.669-9.848S251.731,299.006,251.731,299.006Z" transform="translate(-221.052 -252.972)" fill="#9f616a"/>
    <path id="Path_945" data-name="Path 945" d="M261.1,309.714l-3.06,3.06-4.207-2.295s-6.5-3.824-3.633-4.4c1.845-.369,1.949-3.192,1.79-5.157a17.789,17.789,0,0,0-.26-1.918s10.8-3.346,8.7.861a7.335,7.335,0,0,0-.658,2.058C259.13,305.7,261.1,309.714,261.1,309.714Z" transform="translate(-221.052 -252.972)" fill="#9f616a"/>
    <path id="Path_946" data-name="Path 946" d="M265.433,697.64v4.4H272.7l.574-1.721-.765-4.589Z" transform="translate(-214.676 -562.688)" fill="#575a88"/>
    <path id="Path_947" data-name="Path 947" d="M209.292,526.637s0,11.282,4.589,11.665,21.035,2.486,21.035,2.486.956,18.74,2.677,24.859.191,6.5,1.721,6.884,8.031-.956,7.84-2.295-.956-35.185-.956-35.185,1.721-7.267-21.226-10.709Z" transform="translate(-188.557 -436.239)" fill="#2f2e41"/>
    <path id="Path_948" data-name="Path 948" d="M358.538,772.241s-1.147-2.486-1.339-1.721-2.486,7.458-.191,8.031,9.561,3.633,14.342,3.442a35.538,35.538,0,0,0,5.354-.382s1.339-1.912-.382-3.06-8.8-7.84-9.179-8.605-3.251-1.339-3.251,0S359.876,773.962,358.538,772.241Z" transform="translate(-307.207 -634.228)" fill="#2f2e41"/>
    <path id="Path_949" data-name="Path 949" d="M269.993,299.866a7.337,7.337,0,0,0-.658,2.058c-.952.576-1.589.428-2.784.428-1.773,0-2.488-2.266-3.633-3.442-.09-1.092-1.625.1-1.625.1S272.1,295.659,269.993,299.866Z" transform="translate(-230.613 -252.972)" opacity="0.1"/>
    <circle id="Ellipse_373" data-name="Ellipse 373" cx="6.31" cy="6.31" r="6.31" transform="translate(29.149 36.663)" fill="#9f616a"/>
    <path id="Path_950" data-name="Path 950" d="M224.9,349.3s-.956,6.884-1.53,9.37-1.339,13.959-1.721,15.489-2.677,1.912-7.267,1.339a8.615,8.615,0,0,0-.868-.065c-2.826-.09-6.06.968-9.053,1.8a22.758,22.758,0,0,1-4.8.945c-2.18.1-2.819-2.318-2.744-4.934a13.641,13.641,0,0,1,1.406-5.966c1.161-1.66.019-16.562.447-21.476v0a3.561,3.561,0,0,1,.317-1.469c1.147-1.53,8.605-5.354,9.441-5.2s7.961,4.626,7.961,4.626c1.721,0,1.666-1.866,1.666-1.866a6.141,6.141,0,0,0,3.5,2.822C223.947,345.288,224.9,349.3,224.9,349.3Z" transform="translate(-178.544 -286.443)" fill="#575a88"/>
    <path id="Path_951" data-name="Path 951" d="M268.986,521.984s12.318.392,10.16,1.856-11.719,2.8-11.91.89A2.891,2.891,0,0,1,268.986,521.984Z" transform="translate(-235.41 -434.332)" fill="#9f616a"/>
    <path id="Path_952" data-name="Path 952" d="M213.542,403.108c.04.734-1.935,2.388-2.574,3.507-.354.62-3.092-.2-6.479-1.71a66.431,66.431,0,0,1-7.548-3.989,13.641,13.641,0,0,1,1.405-5.966c1.161-1.66.019-16.562.447-21.476v0a2.127,2.127,0,0,1,.317-.13h2.295c7.84,3.633-1.147,19.314-1.147,19.314s11.856,9.752,13,10.135A.344.344,0,0,1,213.542,403.108Z" transform="translate(-178.569 -314.114)" opacity="0.1"/>
    <path id="Path_953" data-name="Path 953" d="M174.445,367.342h-2.295s-2.1.574-3.824,4.4-8.031,15.68-2.486,20.27,17.4,9.944,18.166,8.605,3.442-3.442,2.295-3.824-13-10.135-13-10.135S182.286,370.975,174.445,367.342Z" transform="translate(-151.607 -309.262)" fill="#575a88"/>
    <path id="Path_954" data-name="Path 954" d="M246.873,245.483s.277-3.834,3.693-2.27,3.193-2.745,2.161-3.507-1-.95-4.776-.44-11.107,1.372-8.736,8.965,4.517,5.639,4.517,5.639-1.884-6.832.025-5.53l1.909,1.3,1.007-.213Z" transform="translate(-212.384 -205.445)" fill="#2f2e41"/>
    <path id="Path_955" data-name="Path 955" d="M533.793,535.227c0-3.452-25.649-6.25-57.288-6.25s-57.288,2.8-57.288,6.25c0,1.338,3.855,2.577,10.416,3.594v42.758h3.125V539.262c10.509,1.355,26.206,2.215,43.747,2.215,17.687,0,33.5-.875,44.008-2.249v42.35h3.125v-42.8C530.04,537.771,533.793,536.547,533.793,535.227Z" transform="translate(-358.338 -439.989)" fill="#3f3d56"/>
    <ellipse id="Ellipse_374" data-name="Ellipse 374" cx="11.665" cy="2.868" rx="11.665" ry="2.868" transform="translate(113.679 89.632)" fill="#f2f2f2"/>
    <ellipse id="Ellipse_375" data-name="Ellipse 375" cx="9.561" cy="2.351" rx="9.561" ry="2.351" transform="translate(115.783 90.15)" fill="#d0cde1"/>
    <ellipse id="Ellipse_376" data-name="Ellipse 376" cx="11.665" cy="2.868" rx="11.665" ry="2.868" transform="translate(70.271 91.927)" fill="#f2f2f2"/>
    <ellipse id="Ellipse_377" data-name="Ellipse 377" cx="9.561" cy="2.351" rx="9.561" ry="2.351" transform="translate(72.375 92.444)" fill="#d0cde1"/>
    <ellipse id="Ellipse_378" data-name="Ellipse 378" cx="5.561" cy="0.878" rx="5.561" ry="0.878" transform="translate(119.512 90.542)" fill="#9f616a"/>
    <ellipse id="Ellipse_379" data-name="Ellipse 379" cx="1.756" cy="0.951" rx="1.756" ry="0.951" transform="translate(120.353 89.188)" fill="#006aff"/>
    <ellipse id="Ellipse_380" data-name="Ellipse 380" cx="1.756" cy="0.951" rx="1.756" ry="0.951" transform="translate(119.695 89.188)" fill="#006aff"/>
    <ellipse id="Ellipse_381" data-name="Ellipse 381" cx="1.756" cy="0.951" rx="1.756" ry="0.951" transform="translate(127.378 89.408)" fill="#006aff"/>
    <ellipse id="Ellipse_382" data-name="Ellipse 382" cx="1.756" cy="0.951" rx="1.756" ry="0.951" transform="translate(123.353 89.188)" fill="#006aff"/>
    <ellipse id="Ellipse_383" data-name="Ellipse 383" cx="1.756" cy="0.951" rx="1.756" ry="0.951" transform="translate(126.353 89.188)" fill="#006aff"/>
    <path id="Path_956" data-name="Path 956" d="M737.479,512.717a18.014,18.014,0,0,1-10.683,0v-.148a4.364,4.364,0,0,1,4.144-4.361,27.417,27.417,0,0,1,2.825,0,3.943,3.943,0,0,1,3.714,3.946Z" transform="translate(-607.101 -423.162)" fill="#3f3d56"/>
    <path id="Path_957" data-name="Path 957" d="M736.076,543.548a35.093,35.093,0,0,1-7.054,0,2.254,2.254,0,0,1-2.034-2.24h11.122A2.254,2.254,0,0,1,736.076,543.548Z" transform="translate(-607.256 -449.961)" fill="#3f3d56"/>
    <path id="Path_958" data-name="Path 958" d="M740.268,514.8a2.093,2.093,0,0,1-1.61,0A2.093,2.093,0,0,1,740.268,514.8Z" transform="translate(-616.695 -428.391)" fill="#d0cde1"/>
    <path id="Path_959" data-name="Path 959" d="M748.686,518.243a2.092,2.092,0,0,1-1.61,0A2.092,2.092,0,0,1,748.686,518.243Z" transform="translate(-623.503 -431.177)" fill="#d0cde1"/>
    <path id="Path_960" data-name="Path 960" d="M749.452,512.121a2.093,2.093,0,0,1-1.61,0A2.093,2.093,0,0,1,749.452,512.121Z" transform="translate(-624.123 -426.225)" fill="#d0cde1"/>
    <path id="Path_961" data-name="Path 961" d="M765.14,512.121a2.093,2.093,0,0,1-1.61,0A2.093,2.093,0,0,1,765.14,512.121Z" transform="translate(-636.811 -426.225)" fill="#d0cde1"/>
    <path id="Path_962" data-name="Path 962" d="M760.931,515.565a2.093,2.093,0,0,1-1.61,0A2.093,2.093,0,0,1,760.931,515.565Z" transform="translate(-633.407 -429.011)" fill="#d0cde1"/>
    <ellipse id="Ellipse_384" data-name="Ellipse 384" cx="5.561" cy="0.878" rx="5.561" ry="0.878" transform="translate(76.295 92.837)" fill="#9f616a"/>
    <ellipse id="Ellipse_385" data-name="Ellipse 385" cx="1.756" cy="0.951" rx="1.756" ry="0.951" transform="translate(77.137 91.483)" fill="#006aff"/>
    <ellipse id="Ellipse_386" data-name="Ellipse 386" cx="1.756" cy="0.951" rx="1.756" ry="0.951" transform="translate(76.478 91.483)" fill="#006aff"/>
    <ellipse id="Ellipse_387" data-name="Ellipse 387" cx="1.756" cy="0.951" rx="1.756" ry="0.951" transform="translate(84.161 91.703)" fill="#006aff"/>
    <ellipse id="Ellipse_388" data-name="Ellipse 388" cx="1.756" cy="0.951" rx="1.756" ry="0.951" transform="translate(80.136 91.483)" fill="#006aff"/>
    <ellipse id="Ellipse_389" data-name="Ellipse 389" cx="1.756" cy="0.951" rx="1.756" ry="0.951" transform="translate(83.136 91.483)" fill="#006aff"/>
    <path id="Path_963" data-name="Path 963" d="M511.479,524.717a18.015,18.015,0,0,1-10.683,0v-.148a4.364,4.364,0,0,1,4.144-4.361,27.434,27.434,0,0,1,2.825,0,3.943,3.943,0,0,1,3.714,3.946Z" transform="translate(-424.318 -432.867)" fill="#3f3d56"/>
    <path id="Path_964" data-name="Path 964" d="M510.076,555.548a35.1,35.1,0,0,1-7.054,0,2.254,2.254,0,0,1-2.034-2.24h11.122A2.254,2.254,0,0,1,510.076,555.548Z" transform="translate(-424.473 -459.667)" fill="#3f3d56"/>
    <path id="Path_965" data-name="Path 965" d="M514.268,526.8a2.093,2.093,0,0,1-1.61,0A2.093,2.093,0,0,1,514.268,526.8Z" transform="translate(-433.912 -438.097)" fill="#d0cde1"/>
    <path id="Path_966" data-name="Path 966" d="M522.686,530.243a2.093,2.093,0,0,1-1.61,0A2.093,2.093,0,0,1,522.686,530.243Z" transform="translate(-440.72 -440.882)" fill="#d0cde1"/>
    <path id="Path_967" data-name="Path 967" d="M523.452,524.121a2.093,2.093,0,0,1-1.61,0A2.093,2.093,0,0,1,523.452,524.121Z" transform="translate(-441.34 -435.931)" fill="#d0cde1"/>
    <path id="Path_968" data-name="Path 968" d="M539.14,524.121a2.093,2.093,0,0,1-1.61,0A2.093,2.093,0,0,1,539.14,524.121Z" transform="translate(-454.028 -435.931)" fill="#d0cde1"/>
    <path id="Path_969" data-name="Path 969" d="M534.931,527.565a2.093,2.093,0,0,1-1.61,0A2.093,2.093,0,0,1,534.931,527.565Z" transform="translate(-450.624 -438.716)" fill="#d0cde1"/>
    <path id="Path_970" data-name="Path 970" d="M784.962,543.277l.027.592.034.768s-3.528.2-4.239.951a.423.423,0,0,0-.045.052l-1.413-.309,0-.7.057-.031.03-.016A12.864,12.864,0,0,1,784.962,543.277Z" transform="translate(-649.583 -451.554)" fill="#006aff"/>
    <path id="Path_971" data-name="Path 971" d="M785.2,543.277l.027.592a23.648,23.648,0,0,0-4.526.981l-1.084-.247a12.828,12.828,0,0,1,5.583-1.326Z" transform="translate(-649.826 -451.553)" opacity="0.1"/>
    <path id="Path_972" data-name="Path 972" d="M779.409,550.13l1.054.263.321.738a.432.432,0,0,0-.045.052l-1.413-.309,0-.7.057-.031Z" transform="translate(-649.583 -457.096)" fill="#fff" opacity="0.1"/>
    <path id="Path_973" data-name="Path 973" d="M561.962,556.277l.027.592.034.768s-3.528.2-4.239.951a.419.419,0,0,0-.045.052l-1.413-.309,0-.7.057-.031.03-.016A12.863,12.863,0,0,1,561.962,556.277Z" transform="translate(-469.226 -462.068)" fill="#006aff"/>
    <path id="Path_974" data-name="Path 974" d="M562.2,556.277l.027.592a23.647,23.647,0,0,0-4.526.981l-1.084-.247A12.828,12.828,0,0,1,562.2,556.277Z" transform="translate(-469.469 -462.068)" opacity="0.1"/>
    <path id="Path_975" data-name="Path 975" d="M556.409,563.13l1.054.263.321.738a.428.428,0,0,0-.045.052l-1.413-.309,0-.7.057-.031Z" transform="translate(-469.226 -467.61)" fill="#fff" opacity="0.1"/>
    <path id="Path_976" data-name="Path 976" d="M895.317,414.638a3.531,3.531,0,0,0-1.042-.72v-7.43a.328.328,0,0,0-.328-.328h-1.839a.329.329,0,0,0-.328.328v7.288a3.335,3.335,0,0,0-2.285,3.164v15.939a1.461,1.461,0,0,0,1.461,1.461h3.94a1.454,1.454,0,0,0,1.454-1.454V417.127A3.51,3.51,0,0,0,895.317,414.638Z" transform="translate(-738.688 -340.656)" fill="#3f3d56"/>
    <rect id="Rectangle_1564" data-name="Rectangle 1564" width="6.855" height="9.055" transform="translate(150.807 78.62)" fill="#006aff"/>
    <path id="Path_977" data-name="Path 977" d="M903.461,406.668h-.148v-.179a.329.329,0,0,0-.328-.328h-1.839a.329.329,0,0,0-.328.328v.179h-.148v.762h.148v3.893h2.5v-3.893h.148Z" transform="translate(-747.725 -340.657)" fill="#006aff"/>
    <path id="Path_978" data-name="Path 978" d="M601.02,481.029c-.181-.387-.325-.661-.375-.755a9.97,9.97,0,0,1-5.453,0,18.087,18.087,0,0,0-1.546,4.042c-.361,1.653-.151,2.761.623,3.293l.023.016.005,0c.854.563,1.669,1.061,2.422,1.482l.287.157.01.005.007.009a4.572,4.572,0,0,1,.288.407,1.6,1.6,0,0,1,.292.79v8.208h-.052c-1.963.04-3.177.373-3.177.658,0,.313,1.457.662,3.547.662s3.547-.349,3.547-.662c0-.281-1.194-.612-3.123-.656h-.052l.049-7.593a3.349,3.349,0,0,1,.349-1.481c.039-.077.081-.153.124-.224s.072-.113.11-.165l.007-.01.01-.006q.145-.079.308-.172l.013-.007c.712-.4,1.48-.874,2.282-1.4.716-.472.965-1.426.741-2.835A15.134,15.134,0,0,0,601.02,481.029Z" transform="translate(-499.274 -400.598)" fill="#d0cde1"/>
    <path id="Path_979" data-name="Path 979" d="M602.9,504.92c-.841.554-1.535.97-2.065,1.269h0a12.083,12.083,0,0,0-2.322.065c-.544-.3-1.278-.739-2.181-1.334l-.026-.018h0c-.828-.57-.849-1.776-.579-3.01a7.3,7.3,0,0,1,3.247.482,7.579,7.579,0,0,0,4.614-.05C603.764,503.413,603.659,504.423,602.9,504.92Z" transform="translate(-500.975 -418.058)" fill="#006aff"/>
    <circle id="Ellipse_390" data-name="Ellipse 390" cx="0.238" cy="0.238" r="0.238" transform="translate(96.694 82.912)" fill="#006aff"/>
    <circle id="Ellipse_391" data-name="Ellipse 391" cx="0.238" cy="0.238" r="0.238" transform="translate(96.028 85.101)" fill="#fff"/>
    <circle id="Ellipse_392" data-name="Ellipse 392" cx="0.143" cy="0.143" r="0.143" transform="translate(97.36 83.578)" fill="#006aff"/>
    <circle id="Ellipse_393" data-name="Ellipse 393" cx="0.143" cy="0.143" r="0.143" transform="translate(97.932 86.291)" fill="#fff"/>
    <circle id="Ellipse_394" data-name="Ellipse 394" cx="0.143" cy="0.143" r="0.143" transform="translate(96.932 86.434)" fill="#fff"/>
    <circle id="Ellipse_395" data-name="Ellipse 395" cx="0.143" cy="0.143" r="0.143" transform="translate(99.835 81.674)" fill="#006aff"/>
    <path id="Path_980" data-name="Path 980" d="M659.4,440.564c-.181-.387-.325-.661-.375-.755a9.969,9.969,0,0,1-5.453,0,18.083,18.083,0,0,0-1.546,4.042c-.361,1.653-.151,2.761.623,3.293l.023.016.005,0c.854.563,1.669,1.061,2.422,1.482l.287.157.01.005.007.009a4.588,4.588,0,0,1,.288.407,1.6,1.6,0,0,1,.292.79v8.208h-.052c-1.963.04-3.177.373-3.177.658,0,.313,1.457.662,3.547.662s3.547-.349,3.547-.662c0-.281-1.194-.612-3.124-.656h-.052l.049-7.593a3.348,3.348,0,0,1,.349-1.481c.039-.077.081-.153.124-.224s.072-.113.11-.165l.007-.01.01-.006q.145-.079.308-.172l.013-.007c.712-.4,1.48-.874,2.282-1.4.716-.472.965-1.426.741-2.835A15.151,15.151,0,0,0,659.4,440.564Z" transform="translate(-546.49 -367.871)" fill="#d0cde1"/>
    <path id="Path_981" data-name="Path 981" d="M661.283,464.454c-.841.554-1.535.97-2.065,1.269h0a12.087,12.087,0,0,0-2.322.065c-.544-.3-1.278-.739-2.181-1.334l-.026-.018h0c-.828-.57-.849-1.776-.579-3.01a7.3,7.3,0,0,1,3.247.482,7.579,7.579,0,0,0,4.614-.05C662.143,462.947,662.037,463.957,661.283,464.454Z" transform="translate(-548.19 -385.33)" fill="#006aff"/>
    <circle id="Ellipse_396" data-name="Ellipse 396" cx="0.238" cy="0.238" r="0.238" transform="translate(107.858 75.174)" fill="#006aff"/>
    <circle id="Ellipse_397" data-name="Ellipse 397" cx="0.238" cy="0.238" r="0.238" transform="translate(107.191 77.363)" fill="#fff"/>
    <circle id="Ellipse_398" data-name="Ellipse 398" cx="0.143" cy="0.143" r="0.143" transform="translate(108.524 75.84)" fill="#006aff"/>
    <circle id="Ellipse_399" data-name="Ellipse 399" cx="0.143" cy="0.143" r="0.143" transform="translate(109.095 78.553)" fill="#fff"/>
    <circle id="Ellipse_400" data-name="Ellipse 400" cx="0.143" cy="0.143" r="0.143" transform="translate(108.096 78.696)" fill="#fff"/>
    <circle id="Ellipse_401" data-name="Ellipse 401" cx="0.143" cy="0.143" r="0.143" transform="translate(110.999 73.936)" fill="#006aff"/>
  </g>
</svg>
