<svg xmlns="http://www.w3.org/2000/svg" xmlns:xlink="http://www.w3.org/1999/xlink" width="287.773" height="238.846" viewBox="0 0 287.773 238.846">
  <defs>
    <linearGradient id="linear-gradient" x1="0.677" y1="4.48" x2="0.657" y2="-0.432" gradientUnits="objectBoundingBox">
      <stop offset="0.01"/>
      <stop offset="0.13" stop-opacity="0.69"/>
      <stop offset="1" stop-opacity="0"/>
    </linearGradient>
    <linearGradient id="linear-gradient-2" x1="1.492" y1="2.172" x2="4.864" y2="1.846" xlink:href="#linear-gradient"/>
    <linearGradient id="linear-gradient-3" x1="0.347" y1="2.297" x2="2.762" y2="3.438" xlink:href="#linear-gradient"/>
    <linearGradient id="linear-gradient-4" x1="2.688" y1="16.679" x2="1.457" y2="20.049" xlink:href="#linear-gradient"/>
    <linearGradient id="linear-gradient-5" x1="1.391" y1="4.479" x2="2.251" y2="4.319" xlink:href="#linear-gradient"/>
    <linearGradient id="linear-gradient-6" x1="0.608" y1="4.723" x2="1.594" y2="4.834" xlink:href="#linear-gradient"/>
    <linearGradient id="linear-gradient-7" x1="0.285" y1="3.774" x2="1.933" y2="3.468" xlink:href="#linear-gradient"/>
    <linearGradient id="linear-gradient-8" x1="1.389" y1="6.034" x2="0.767" y2="3.187" xlink:href="#linear-gradient"/>
    <linearGradient id="linear-gradient-9" x1="1.527" y1="10.37" x2="2.528" y2="10.37" gradientUnits="objectBoundingBox">
      <stop offset="0" stop-color="#ecc4d7"/>
      <stop offset="0.42" stop-color="#efd4d1"/>
      <stop offset="1" stop-color="#f2eac9"/>
    </linearGradient>
    <linearGradient id="linear-gradient-10" x1="2.744" y1="18.911" x2="2.552" y2="13.96" xlink:href="#linear-gradient"/>
    <linearGradient id="linear-gradient-11" x1="1.061" y1="6.412" x2="2.109" y2="6.412" xlink:href="#linear-gradient-9"/>
    <linearGradient id="linear-gradient-12" x1="0.419" y1="3.782" x2="1.419" y2="3.782" xlink:href="#linear-gradient"/>
    <linearGradient id="linear-gradient-13" x1="1.47" y1="3.404" x2="1.076" y2="3.129" gradientUnits="objectBoundingBox">
      <stop offset="0.02" stop-color="#fff" stop-opacity="0"/>
      <stop offset="0.58" stop-color="#fff" stop-opacity="0.388"/>
      <stop offset="0.68" stop-color="#fff" stop-opacity="0.678"/>
      <stop offset="1" stop-color="#fff"/>
    </linearGradient>
    <linearGradient id="linear-gradient-14" x1="1.365" y1="7.431" x2="2.364" y2="7.431" xlink:href="#linear-gradient-9"/>
    <linearGradient id="linear-gradient-15" x1="141.046" y1="1136.339" x2="142.003" y2="1136.339" xlink:href="#linear-gradient"/>
    <linearGradient id="linear-gradient-16" x1="0.513" y1="1.66" x2="3.25" y2="1.83" xlink:href="#linear-gradient"/>
    <linearGradient id="linear-gradient-17" x1="0.246" y1="3.902" x2="1.842" y2="3.714" xlink:href="#linear-gradient"/>
    <linearGradient id="linear-gradient-18" x1="1.198" y1="2.182" x2="2.247" y2="1.382" xlink:href="#linear-gradient"/>
    <linearGradient id="linear-gradient-19" x1="0.445" y1="3.443" x2="1.445" y2="3.443" xlink:href="#linear-gradient"/>
    <linearGradient id="linear-gradient-20" x1="0.802" y1="3.512" x2="1.008" y2="3.28" xlink:href="#linear-gradient-13"/>
    <linearGradient id="linear-gradient-21" x1="0.934" y1="4.191" x2="1.236" y2="3.495" xlink:href="#linear-gradient-13"/>
    <linearGradient id="linear-gradient-22" x1="0.633" y1="12.177" x2="1.633" y2="12.177" xlink:href="#linear-gradient-13"/>
    <linearGradient id="linear-gradient-23" x1="1.521" y1="4.908" x2="2.522" y2="4.908" xlink:href="#linear-gradient-9"/>
  </defs>
  <g id="Group_23" data-name="Group 23" transform="translate(-9755 4514)">
    <path id="Path_1" data-name="Path 1" d="M343.22,212.56c1.15-18.1-14-35.13-10-52.81,1.47-6.49,5.44-12.2,7.07-18.67,1.8-7.1.65-14.64-1.44-21.67a84.52,84.52,0,0,0-28.33-41.86c-19.4-15.4-44.76-21.47-69.52-22.79S191.46,56.42,166.68,57C151,57.42,135,56.9,120,61.68c-17.73,5.66-32.63,18.54-42.92,34.06s-16.3,33.54-19.91,51.8c-1.38,7.07-2.45,14.4-.89,21.43C59.12,181.72,70,191.13,75,203.2c3.5,8.39,4,17.76,7.23,26.29C87.56,243.85,100.06,254.67,114,261s29.33,8.75,44.55,10.45a559.282,559.282,0,0,0,76.11,3.25c25.51-.66,43.28-8.67,65.52-19.77C318.27,245.94,341.74,236.05,343.22,212.56Z" transform="translate(9699.491 -4550.036)" fill="#6366ff" opacity="0.18"/>
    <path id="Path_2" data-name="Path 2" d="M287.76,244c2.25.61,4.73,1.47,5.74,3.56,2.35,4.91-5.12,8.39-10.54,8.7a944.706,944.706,0,0,1-167.21-5.4c-6.31-.77-13.35-2-17-7.2,6.46-8.51,18.72-9.23,29.38-9.23C181.34,234.52,235.94,229.86,287.76,244Z" transform="translate(9699.491 -4550.036)" fill="url(#linear-gradient)"/>
    <path id="Path_3" data-name="Path 3" d="M284,177l-19.41,11.35-2.73-.74c-7.69-2.13-29.11-8.27-31-11.36-2.35-3.76-10.84-21.48-10.84-21.48l4-12.26L228.61,128s18.18,29.46,21.47,31.35S284,177,284,177Z" transform="translate(9699.491 -4550.036)" fill="#6366ff"/>
    <path id="Path_4" data-name="Path 4" d="M157.34,207.91s-6.06-8.34-13.38-4.18-12.54,36.79-4.18,42.85,16.72-12.13,16.72-12.13Z" transform="translate(9699.491 -4550.036)" fill="#6366ff"/>
    <path id="Path_5" data-name="Path 5" d="M157.34,207.91s-6.06-8.34-13.38-4.18-12.54,36.79-4.18,42.85,16.72-12.13,16.72-12.13Z" transform="translate(9699.491 -4550.036)" fill="url(#linear-gradient-2)"/>
    <path id="Path_6" data-name="Path 6" d="M179.55,254.31s-26.81-20.69-27.75-24.45-4.7-12.23-.49-17.87,13.17-4.24,13.17-4.24S184.24,231.74,179.55,254.31Z" transform="translate(9699.491 -4550.036)" fill="#6366ff"/>
    <path id="Path_7" data-name="Path 7" d="M179.55,254.31s-26.81-20.69-27.75-24.45-4.7-12.23-.49-17.87,13.17-4.24,13.17-4.24S184.24,231.74,179.55,254.31Z" transform="translate(9699.491 -4550.036)" fill="#3f3d56"/>
    <path id="Path_8" data-name="Path 8" d="M260,251.49c-4.7,4.71-24.46,4.71-28.69.94s-12.86-4.86-12.38-13.8l2.66-3.92-.49-.13-2.62-.69-1.73-17.83-16.36,4.75-3.08.89-1.88-28.08s30.25-16.91,42-14.55,8,29.62,8.46,31c.34,1,.44,12.47,1.48,20.19.15,1.13-3.24,1.61-3.05,2.54.36,1.64,4.35,3.47,4.87,4.07C252,240.2,264.66,246.78,260,251.49Z" transform="translate(9699.491 -4550.036)" fill="#3f3d56"/>
    <path id="Path_9" data-name="Path 9" d="M232.58,234.45l-11.53.14-2.62-.69-1.73-17.83-16.36,4.74-.16-.15-.83-16.51s23.82-9,27-7.73S232.58,234.45,232.58,234.45Z" transform="translate(9699.491 -4550.036)" fill="url(#linear-gradient-3)"/>
    <path id="Path_10" data-name="Path 10" d="M219.63,181.52l4.59,10.73-64.42,6.57c-6.38.42-6.79-11.57-6.07-19.57.12-1.28.26-2.45.42-3.47,2.11-13.62,5.94-32,9-45.76,2.2-9.81,4-17.26,4.61-19,1.88-5.65,22.56-6,22.56-6h.32C211.85,103.78,228.6,128,228.6,128l-8.07,28-4.78,16.55.78,1.82.72,1.68Z" transform="translate(9699.491 -4550.036)" fill="#6366ff"/>
    <path id="Path_11" data-name="Path 11" d="M176.67,196c.63-1.35,2.17-2,3.55-2.49a45.26,45.26,0,0,0,7.85-4,8.09,8.09,0,0,1,2.45-1.24,4.67,4.67,0,0,1,4.24,1.34c4.68,4.6-1.47,4.56-5,5C188.27,194.85,177.09,195.11,176.67,196Z" transform="translate(9699.491 -4550.036)" fill="url(#linear-gradient-4)"/>
    <path id="Path_12" data-name="Path 12" d="M220.53,156l-4.77,16.55.78,1.81a5,5,0,0,0,.37,1.05c.11.22.22.43.34.64.92,1.55,2.3,2.94,2.42,4.7a3.76,3.76,0,0,1,0,.82c-.29,1.89-2,3.44-3.51,4.69a14.88,14.88,0,0,1-5,3.08c-2.92.84-6.12-.21-8.55-2a30,30,0,0,1-6-6.82c-1.12-1.57-2.29-3.29-2.29-5.22a7.86,7.86,0,0,1,.66-2.82c2.16-5.59,6.15-10.25,10.07-14.79l14.3-16.6a2.81,2.81,0,0,1,1.89-1.25c1,0,1.73,1,2.23,1.85l.49.87-4,12.26S220.17,155.2,220.53,156Z" transform="translate(9699.491 -4550.036)" fill="url(#linear-gradient-5)"/>
    <path id="Path_13" data-name="Path 13" d="M261.84,187.6c-7.69-2.13-29.11-8.27-31-11.35-2.35-3.76-10.84-21.48-10.84-21.48l4-12.26,12.56,21.85c1.83,3.18,3.71,6.43,6.56,8.73a29.691,29.691,0,0,0,6.46,3.63C251.76,177.75,266.73,182.93,261.84,187.6Z" transform="translate(9699.491 -4550.036)" fill="url(#linear-gradient-6)"/>
    <path id="Path_14" data-name="Path 14" d="M215.76,172.49l8.46,19.76-58.64,6a5.78,5.78,0,0,0,.28-3.39c-.59-2.59-2.84-5.54-1-7.48a3.94,3.94,0,0,1,1.67-1,14.38,14.38,0,0,1,12.71,1.6c2.6,1.77,4.58,4.37,7.3,5.94s6.81,1.64,8.43-1.06c-3.52-5.68-.4-13.73-3.95-19.38-1.55-2.45-4.13-4-6.5-5.74a56.84,56.84,0,0,1-10.3-9.48,7.18,7.18,0,0,1-1.93-3.52,7.6,7.6,0,0,1,.49-3.27c1.22-4.07,4.67-9.36-.23-11.52-3.68-1.63-9.22,1.57-11.64,4.11-.34.35-.67.72-1,1.1,3.47-16.6,7-31.59,7.9-34.13,1.88-5.65,22.56-6,22.56-6,21.33-1.56,38.26,22.89,38.26,22.89Z" transform="translate(9699.491 -4550.036)" fill="none"/>
    <path id="Path_15" data-name="Path 15" d="M194.94,192.87c-9.28-12.08-34.86-8.79-35.31-8.33-1.82,2,1,7.9,1.56,10.5.26,1.13,4.8,2.09,4.38,3.17l-5.78.59c-7.36.49-6.78-15.73-5.65-23.05,1.39-9,3.55-20.14,5.74-30.62a12.743,12.743,0,0,1,1-1.1c2.42-2.54,8-5.73,11.64-4.11,4.91,2.16,1.45,7.46.23,11.53a7.58,7.58,0,0,0-.49,3.27,7.29,7.29,0,0,0,1.93,3.51,56.89,56.89,0,0,0,10.3,9.49c2.37,1.69,4.95,3.28,6.5,5.74C194.54,179.14,191.42,187.19,194.94,192.87Z" transform="translate(9699.491 -4550.036)" fill="url(#linear-gradient-7)"/>
    <path id="Path_16" data-name="Path 16" d="M272.5,174l32.74,17a6.63,6.63,0,0,1,.58,5c-.9,2.44-3.93,7.41-8.41,6.53s-32.66-16-32.66-16Z" transform="translate(9699.491 -4550.036)" fill="#6366ff"/>
    <path id="Path_17" data-name="Path 17" d="M272.5,174l32.74,17a6.63,6.63,0,0,1,.58,5c-.9,2.44-3.93,7.41-8.41,6.53s-32.66-16-32.66-16Z" transform="translate(9699.491 -4550.036)" fill="url(#linear-gradient-8)"/>
    <path id="Path_18" data-name="Path 18" d="M202.33,125.85a6.56,6.56,0,0,1-4.61-.71c-4.88-2.39-7.91-7.77-8.21-13.19a22.556,22.556,0,0,1,5.24-15,3.41,3.41,0,0,1,2.45-1.62,3.51,3.51,0,0,1,2.38,1.56c3.82,4.57,10.15,12.1,11.06,18.19.46,3.14-1.25,3.39-3.3,5.85C205.86,122.71,204.82,125.14,202.33,125.85Z" transform="translate(9699.491 -4550.036)" fill="url(#linear-gradient-9)"/>
    <path id="Path_19" data-name="Path 19" d="M197,108s-.42,14.84,2.51,17.56,5.43-2.51,5.43-2.51l7.11-7.74Z" transform="translate(9699.491 -4550.036)" fill="url(#linear-gradient-10)"/>
    <path id="Path_20" data-name="Path 20" d="M239.48,112.83a37.37,37.37,0,0,1-6.78,6.22,26,26,0,0,1-17.7,3.79,23.08,23.08,0,0,1-13.2-5.86c-4.29-4.13-6.31-10.21-6.53-16.18s1.24-11.85,3-17.54a46.49,46.49,0,0,1,5.29-12.1c7.18-10.79,21-15.25,34-15.64,6.42-.2,13.24.54,18.45,4.32,3.79,2.74,6.95,8.12,6.26,13-.54,3.82-3.59,7.78-4.93,11.42a88.75,88.75,0,0,1-17.86,28.57Z" transform="translate(9699.491 -4550.036)" fill="url(#linear-gradient-11)"/>
    <path id="Path_21" data-name="Path 21" d="M264,82.58a15,15,0,0,1-3,4.85,9.67,9.67,0,0,1-11.31,1.87c-2.74-1.47-4.72-4.16-7.15-6.15-5.1-4.18-12.54-4.87-17.86-1.06-1.52,1.09-2.94,2.54-4.73,2.78-2.26.31-4.46-1.4-6.7-1-2.09.38-3.54,2.45-4.6,4.48s-2.06,4.26-3.92,5.4l.67-5.54a12.78,12.78,0,0,0,0-5c-.43-1.59-1.68-3.05-3.19-3.05s-2.8,1.45-3.32,3a23.7,23.7,0,0,0-.66,5,11.45,11.45,0,0,1-1.9,5.76c-1.19,1.61.59,4.6-1.24,4.12s-7-4.52-7.85-6.56c-2.77-6.8-1.85-14.71-.39-22A71.111,71.111,0,0,1,192,52.38c2.59-5.36,6.34-10.2,11.18-13.1a23.37,23.37,0,0,1,13.86-3.16,26.12,26.12,0,0,1,5.75,1.12,9.579,9.579,0,0,0,2.29.56,10.45,10.45,0,0,0,3.49-.75c7.19-2.19,14.87.08,21.81,3.12,3.72,1.64,7.47,3.59,10.16,6.87,3.88,4.74,4.67,11.14,4.82,17.27C265.55,70.62,266.45,76.59,264,82.58Z" transform="translate(9699.491 -4550.036)" fill="#3f3d56"/>
    <path id="Path_22" data-name="Path 22" d="M271.19,139c-12.62-8.09-35.83-2-52.76,14.19-11.49,11-17.23,23.82-16.3,34-.4-.25-.79-.53-1.17-.81-12.32-9.27-8.15-30.3,9.31-47s41.61-22.66,54-13.38a17.78,17.78,0,0,1,6.92,13Z" transform="translate(9699.491 -4550.036)" fill="#6366ff"/>
    <path id="Path_23" data-name="Path 23" d="M271.19,139c-12.62-8.09-35.83-2-52.76,14.19-11.49,11-17.23,23.82-16.3,34-.4-.25-.79-.53-1.17-.81-12.32-9.27-8.15-30.3,9.31-47s41.61-22.66,54-13.38a17.78,17.78,0,0,1,6.92,13Z" transform="translate(9699.491 -4550.036)" fill="url(#linear-gradient-12)"/>
    <path id="Path_24" data-name="Path 24" d="M223.9,206.71c-6.34,0-11.89-1.63-16.12-4.82a19.81,19.81,0,0,1-7.85-14.56c-1-11.28,5.31-24.65,17-35.8,17.59-16.78,42-23.13,55.5-14.45a15.317,15.317,0,0,1,1.3.9,20,20,0,0,1,7.93,15.39c.65,11.09-5.72,24.15-17,35h0a68,68,0,0,1-29.89,17A44.7,44.7,0,0,1,223.9,206.71Zm33.66-69.08A41.39,41.39,0,0,0,247,139.1a64.23,64.23,0,0,0-27,15.65c-10.52,10.05-16.5,22.37-15.61,32.16a15.37,15.37,0,0,0,6.1,11.4c11.47,8.63,34.37,2.71,51.05-13.21,10.38-9.91,16.24-21.68,15.67-31.47a15.7,15.7,0,0,0-6.16-12.1,11.263,11.263,0,0,0-1-.69,23,23,0,0,0-12.49-3.21Z" transform="translate(9699.491 -4550.036)" fill="#6366ff"/>
    <g id="Group_21" data-name="Group 21" transform="translate(9699.491 -4550.036)" opacity="0.69">
      <path id="Path_25" data-name="Path 25" d="M281.61,153.39a20,20,0,0,0-7.92-15.4c-.45-.34-.88-.63-1.3-.89-13.53-8.69-37.91-2.34-55.5,14.44-11.66,11.14-18,24.53-17,35.81a20,20,0,0,0,7.85,14.55,21.4,21.4,0,0,0,3.81,2.29,28.74,28.74,0,0,0,12.32,2.53,45.1,45.1,0,0,0,10.79-1.4A62.181,62.181,0,0,0,250.32,199a72.728,72.728,0,0,0,14.25-10.65c7.85-7.51,13.35-16.11,15.73-24.38a31.18,31.18,0,0,0,1.31-10.58ZM261.5,185.12C244.83,201,221.93,207,210.45,198.33a15.4,15.4,0,0,1-6.1-11.41c-.89-9.78,5.09-22.1,15.62-32.15a64.25,64.25,0,0,1,27-15.65,41.391,41.391,0,0,1,10.56-1.47A22.81,22.81,0,0,1,270,140.88a8.739,8.739,0,0,1,1,.69,15.7,15.7,0,0,1,6.16,12.1c.59,9.77-5.27,21.54-15.65,31.45Z" fill="url(#linear-gradient-13)"/>
    </g>
    <path id="Path_26" data-name="Path 26" d="M276.48,177.49a10.5,10.5,0,0,1-2,4.81c-1.58,1.84-4.22,2.4-6,4a2.39,2.39,0,0,0-.6.77,2.16,2.16,0,0,0,1.24,2.45A4.29,4.29,0,0,0,274,189a18.646,18.646,0,0,0-2,1c-.28.18-.6.4-.63.74s.34.68.68.86a5.29,5.29,0,0,0,6-.82l-1.79,1c-.37.22-.78.53-.72.95s.34.52.63.66a5,5,0,0,0,5.7-1.09l-3.66,2.16a3.1,3.1,0,0,0,3,1.16,7.22,7.22,0,0,0,3.08-1.47,22.331,22.331,0,0,0,5-5c1.66-2.32,2.89-5.3,2-8s-3.81-4.37-6.45-5.66a17.65,17.65,0,0,0-6.24-2.13c-1.15-.09-1.56-.19-1.81.85S276.71,176.44,276.48,177.49Z" transform="translate(9699.491 -4550.036)" fill="url(#linear-gradient-14)"/>
    <path id="Path_27" data-name="Path 27" d="M188,165l-1.28,16.12s-25.28-1.23-33-1.83c-.91-.07-1.57-.13-1.92-.18a3.1,3.1,0,0,1-1.47-.73c-3.16-2.53-6.87-11.25-6.06-21.37.94-11.77,23.51-45.93,23.51-45.93a30.15,30.15,0,0,1,5.35,4.19c11.14,11.09,4.52,24.81,4.52,24.81s-11.77,12.23-9.87,16.46S188,165,188,165Z" transform="translate(9699.491 -4550.036)" fill="#6366ff"/>
    <path id="Path_28" data-name="Path 28" d="M183.17,254.8a15.779,15.779,0,0,1-3.62-.49l-.24-.07c-15-4.28-19.51-55.42-19.51-55.42h.1L171,197.2l24.34-3.55,4.42,12.72S203.56,254.89,183.17,254.8Z" transform="translate(9699.491 -4550.036)" fill="#3f3d56"/>
    <path id="Path_29" data-name="Path 29" d="M158.29,191.69l-.23-.08S158.13,191.47,158.29,191.69Z" transform="translate(9699.491 -4550.036)" fill="url(#linear-gradient-15)"/>
    <path id="Path_30" data-name="Path 30" d="M185.34,254.31a7.678,7.678,0,0,1-2.17.49,8.21,8.21,0,0,1-3.86-.55,9,9,0,0,1-4-3.39c-4.08-6-11.28-19.12-13.79-40.12-.64-5.31-1.17-9.15-1.62-11.94l11.1-1.62c1.37,3.88,5.64,16.44,6.16,23.28.63,8.15-4.7,22.89,2.51,27.27S185.34,254.31,185.34,254.31Z" transform="translate(9699.491 -4550.036)" fill="url(#linear-gradient-16)"/>
    <path id="Path_31" data-name="Path 31" d="M194.94,192.87c-1.62,2.7-5.71,2.63-8.43,1.06s-4.7-4.17-7.3-5.94a14.39,14.39,0,0,0-12.71-1.62,3.94,3.94,0,0,0-1.67,1c-1.81,2,.44,4.9,1,7.48a5.78,5.78,0,0,1-.28,3.39,7.22,7.22,0,0,1-3.71,4,9.54,9.54,0,0,1-8.67-.84c-4.44-2.71-6.63-8.15-6.78-13.36s1.4-10.3,2.94-15.25q2.2-7.12,4.41-14.25c1.47-4.7,3-9.55,6.09-13.33a14.663,14.663,0,0,1,1-1.1c2.41-2.54,8-5.74,11.64-4.11,4.9,2.16,1.45,7.45.22,11.52a7.919,7.919,0,0,0-.49,3.27,7.42,7.42,0,0,0,1.94,3.52,56.509,56.509,0,0,0,10.3,9.48c2.37,1.7,4.94,3.28,6.49,5.74C194.54,179.14,191.42,187.19,194.94,192.87Z" transform="translate(9699.491 -4550.036)" fill="none"/>
    <path id="Path_32" data-name="Path 32" d="M190.68,105.06a7.91,7.91,0,0,1-1.89,5.11c-2.78,2.81-10.2,3.43-13.92,4.51-.58.16-1.16.34-1.73.55a6.79,6.79,0,0,0-1.84,1,10.45,10.45,0,0,0-2.58,3.5L163.18,130l-7.84,14.54c-3,5.61-6.1,11.44-6.51,17.8-.34,5.35,1.24,10.65,1.47,16-3.15-2.53-6.87-11.25-6.06-21.37.94-11.77,23.52-45.93,23.52-45.93,1.87-5.65,22.56-6,22.56-6Z" transform="translate(9699.491 -4550.036)" fill="url(#linear-gradient-17)"/>
    <path id="Path_33" data-name="Path 33" d="M260,251.49c-4.7,4.71-24.46,4.71-28.69.94s-12.86-4.86-12.38-13.8l2.66-3.92s16.68.89,22.73-1.88c.35,1.64,4.34,3.47,4.86,4.07C252,240.2,264.66,246.78,260,251.49Z" transform="translate(9699.491 -4550.036)" fill="url(#linear-gradient-18)"/>
    <path id="Path_34" data-name="Path 34" d="M261.5,185.12C244.82,201,221.93,207,210.45,198.33a15.4,15.4,0,0,1-6.1-11.41s6.7,14.71,37.42-3.15S270,140.86,270,140.86a8.739,8.739,0,0,1,1,.69,15.73,15.73,0,0,1,6.16,12.1C277.74,163.44,271.88,175.21,261.5,185.12Z" transform="translate(9699.491 -4550.036)" fill="#6366ff"/>
    <path id="Path_35" data-name="Path 35" d="M261.5,185.12C244.82,201,221.93,207,210.45,198.33a15.4,15.4,0,0,1-6.1-11.41s6.7,14.71,37.42-3.15S270,140.86,270,140.86a8.739,8.739,0,0,1,1,.69,15.73,15.73,0,0,1,6.16,12.1C277.74,163.44,271.88,175.21,261.5,185.12Z" transform="translate(9699.491 -4550.036)" fill="url(#linear-gradient-19)"/>
    <g id="Group_22" data-name="Group 22" transform="translate(9699.491 -4550.036)" opacity="0.69">
      <path id="Path_36" data-name="Path 36" d="M261.35,185c-16.68,15.91-39.58,21.84-51.06,13.2a15.4,15.4,0,0,1-6.1-11.41c-.89-9.78,5.09-22.1,15.62-32.15a64.22,64.22,0,0,1,27-15.65,41.261,41.261,0,0,1,10.55-1.47,22.9,22.9,0,0,1,12.45,3.23,10.4,10.4,0,0,1,1,.7,15.7,15.7,0,0,1,6.16,12.1C277.59,163.29,271.73,175.05,261.35,185Z" fill="url(#linear-gradient-20)"/>
    </g>
    <path id="Path_37" data-name="Path 37" d="M251.8,137.9,203.22,186s1.25,9.09,4.07,8.15l56-55.67A54.73,54.73,0,0,0,251.8,137.9Z" transform="translate(9699.491 -4550.036)" fill="url(#linear-gradient-21)"/>
    <path id="Path_38" data-name="Path 38" d="M266.15,127.42l12.78,16.3s-12.14-16.54-40.7-6l-10.56-10.58S251.57,114.41,266.15,127.42Z" transform="translate(9699.491 -4550.036)" fill="#6366ff"/>
    <path id="Path_39" data-name="Path 39" d="M266.15,127.42l12.78,16.3s-12.14-16.54-40.7-6l-10.56-10.58S251.57,114.41,266.15,127.42Z" transform="translate(9699.491 -4550.036)" fill="url(#linear-gradient-22)"/>
    <path id="Path_40" data-name="Path 40" d="M196.64,157.55a6.27,6.27,0,0,1,.42,5.45,44.071,44.071,0,0,1-2.45,5.09,5.07,5.07,0,0,0-.65,3.54,5.51,5.51,0,0,0,1.3,2c2,2.28,4.45,4.73,7.51,4.77,1.1,0,2.66,0,2.74,1.14a1.66,1.66,0,0,1-.46,1.1,7,7,0,0,1-5.16,2.6h5.17a1.18,1.18,0,0,1,1,.32,1.08,1.08,0,0,1,0,.93,7.53,7.53,0,0,1-5,5,7.3,7.3,0,0,0,2.79-.69,2.72,2.72,0,0,1-1.38,4.41c.67-.42,1.62-.83,2.17-.26s.13,1.47-.43,2c-2.4,2.28-6.55,1.13-8.89-1.23s-3.55-5.57-5.48-8.28c-1-1.44-2.26-2.74-3.16-4.26C180.69,170.93,190.63,164.14,196.64,157.55Z" transform="translate(9699.491 -4550.036)" fill="url(#linear-gradient-23)"/>
    <text id="_" data-name="?" transform="translate(9980 -4428)" fill="#3f3d56" font-size="50" font-family="SegoeScript, Segoe Script"><tspan x="0" y="0">?</tspan></text>
    <text id="_2" data-name="?" transform="translate(9993 -4409)" fill="#3f3d56" font-size="50" font-family="SegoeScript, Segoe Script"><tspan x="0" y="0">?</tspan></text>
  </g>
</svg>
