<svg xmlns="http://www.w3.org/2000/svg" xmlns:xlink="http://www.w3.org/1999/xlink" width="199.334" height="144.937" viewBox="0 0 199.334 144.937">
  <defs>
    <linearGradient id="linear-gradient" x1="0.5" y1="1" x2="0.5" gradientUnits="objectBoundingBox">
      <stop offset="0" stop-color="gray" stop-opacity="0.251"/>
      <stop offset="0.54" stop-color="gray" stop-opacity="0.122"/>
      <stop offset="1" stop-color="gray" stop-opacity="0.102"/>
    </linearGradient>
    <linearGradient id="linear-gradient-2" x1="0.5" y1="1" x2="0.5" y2="0" xlink:href="#linear-gradient"/>
  </defs>
  <g id="undraw_eating_together_tjhx_1_" data-name="undraw_eating_together_tjhx (1)" transform="translate(-0.004)">
    <ellipse id="Ellipse_270" data-name="Ellipse 270" cx="9.925" cy="3.529" rx="9.925" ry="3.529" transform="translate(4.165 109.962)" opacity="0.1"/>
    <ellipse id="Ellipse_271" data-name="Ellipse 271" cx="9.925" cy="3.529" rx="9.925" ry="3.529" transform="translate(164.504 124.552)" opacity="0.1"/>
    <path id="Path_688" data-name="Path 688" d="M286.2,125.495a66.273,66.273,0,0,1-46.683.613c-21.553-7.781-49.7-9.773-60.13,25.884-17.8,60.92,18.617,82.664,18.617,82.664s25.426,5.7,39.5,16c20,14.627,44.488,19.517,67.558,12.658,14.753-4.387,27.4-11.584,31.012-23.359,10.11-32.933,3.692-52.728,21.989-61.412s8.116-40.851-4.9-41.581-43.67,6.731-53.154-8.11C296.64,123.58,291.468,123.459,286.2,125.495Z" transform="translate(-168.669 -121.43)" opacity="0.1"/>
    <path id="Path_689" data-name="Path 689" d="M930.371,602.8s2.647-9.008-.5-15.637a14.228,14.228,0,0,1-1.151-8.926,23.922,23.922,0,0,1,1.264-4.191" transform="translate(-756.343 -474.222)" fill="none" stroke="#535461" stroke-miterlimit="10" stroke-width="2"/>
    <path id="Path_690" data-name="Path 690" d="M926.5,547.994c0,1.1,2,4.305,2,4.305s2-3.2,2-4.305a2,2,0,0,0-4,0Z" transform="translate(-754.819 -452.355)" fill="#006aff"/>
    <path id="Path_691" data-name="Path 691" d="M910.4,571.888c.6.926,4.019,2.528,4.019,2.528s-.062-3.774-.662-4.7a2,2,0,1,0-3.355,2.172Z" transform="translate(-742.023 -470.133)" fill="#006aff"/>
    <path id="Path_692" data-name="Path 692" d="M908.3,616.791c.986.5,4.744.154,4.744.154s-1.958-3.227-2.944-3.723a2,2,0,0,0-1.8,3.569Z" transform="translate(-739.774 -504.587)" fill="#006aff"/>
    <path id="Path_693" data-name="Path 693" d="M917.887,653.158c.882.662,4.649.953,4.649.953s-1.385-3.511-2.272-4.166a2,2,0,1,0-2.378,3.213Z" transform="translate(-747.474 -533.072)" fill="#006aff"/>
    <path id="Path_694" data-name="Path 694" d="M932.932,583.09c-.792.77-4.482,1.566-4.482,1.566s.9-3.663,1.7-4.433a2,2,0,1,1,2.786,2.867Z" transform="translate(-756.339 -478.593)" fill="#006aff"/>
    <path id="Path_695" data-name="Path 695" d="M941.494,623.8c-.986.5-4.744.154-4.744.154s1.958-3.227,2.944-3.712a2,2,0,0,1,1.8,3.569Z" transform="translate(-762.808 -510.059)" fill="#006aff"/>
    <path id="Path_696" data-name="Path 696" d="M945.459,666.4c-.882.662-4.649.953-4.649.953s1.385-3.511,2.272-4.166a2,2,0,0,1,2.378,3.214Z" transform="translate(-765.973 -543.392)" fill="#006aff"/>
    <path id="Path_697" data-name="Path 697" d="M197.554,419.255s5.666-19.215-1.059-33.374a30.419,30.419,0,0,1-2.455-19.049,51.068,51.068,0,0,1,2.7-8.941" transform="translate(-183.46 -305.737)" fill="none" stroke="#535461" stroke-miterlimit="10" stroke-width="2"/>
    <path id="Path_698" data-name="Path 698" d="M189.322,302.266c0,2.356,4.266,9.188,4.266,9.188s4.263-6.837,4.263-9.188a4.266,4.266,0,0,0-8.531,0Z" transform="translate(-180.228 -259.056)" fill="#006aff"/>
    <path id="Path_699" data-name="Path 699" d="M155.132,353.534c1.281,1.985,8.575,5.395,8.575,5.395s-.132-8.055-1.414-10.031a4.266,4.266,0,0,0-7.161,4.632Z" transform="translate(-153.089 -297.275)" fill="#006aff"/>
    <path id="Path_700" data-name="Path 700" d="M150.46,449.113c2.1,1.061,10.126.329,10.126.329s-4.191-6.886-6.284-7.94a4.266,4.266,0,0,0-3.842,7.618Z" transform="translate(-148.11 -370.551)" fill="#006aff"/>
    <path id="Path_701" data-name="Path 701" d="M170.888,526.7c1.895,1.4,9.925,2.034,9.925,2.034s-2.955-7.5-4.852-8.893a4.266,4.266,0,1,0-5.073,6.859Z" transform="translate(-164.513 -431.32)" fill="#006aff"/>
    <path id="Path_702" data-name="Path 702" d="M203.053,377.1c-1.689,1.641-9.563,3.341-9.563,3.341s1.928-7.821,3.617-9.462a4.27,4.27,0,0,1,5.955,6.12Z" transform="translate(-183.478 -314.994)" fill="#006aff"/>
    <path id="Path_703" data-name="Path 703" d="M221.316,463.993c-2.1,1.061-10.126.329-10.126.329s4.191-6.886,6.284-7.94A4.266,4.266,0,0,1,221.316,464Z" transform="translate(-197.274 -382.149)" fill="#006aff"/>
    <path id="Path_704" data-name="Path 704" d="M229.775,554.974c-1.895,1.4-9.925,2.034-9.925,2.034s2.955-7.5,4.852-8.893a4.266,4.266,0,0,1,5.073,6.859Z" transform="translate(-204.024 -453.355)" fill="#006aff"/>
    <path id="Path_705" data-name="Path 705" d="M480.749,413.414l-12.292-1.592c-.5-.064-.882-.254-.869-.419h0c.022-.165.441-.243.951-.17l12.265,1.775c.337.049.593.176.578.289h0C481.367,413.4,481.085,413.458,480.749,413.414Z" transform="translate(-397.123 -347.294)" fill="#006aff"/>
    <path id="Path_706" data-name="Path 706" d="M480.709,417.616l-12.329-1.275c-.5-.051-.926.042-.942.207h0c-.015.165.384.34.882.384l12.351,1.1c.34.031.618-.035.629-.148h0C481.309,417.768,481.047,417.651,480.709,417.616Z" transform="translate(-397.006 -351.286)" fill="#006aff"/>
    <path id="Path_707" data-name="Path 707" d="M609.223,456.414l12.289-1.592c.5-.064.882-.254.869-.419h0c-.022-.165-.441-.243-.951-.17l-12.265,1.775c-.337.049-.593.176-.578.289h0C608.6,456.4,608.885,456.458,609.223,456.414Z" transform="translate(-507.023 -380.81)" fill="#006aff"/>
    <path id="Path_708" data-name="Path 708" d="M609.02,460.616l12.329-1.275c.5-.051.926.042.942.207h0c.015.165-.384.34-.882.384l-12.351,1.1c-.34.031-.618-.035-.629-.148h0C608.42,460.768,608.683,460.651,609.02,460.616Z" transform="translate(-506.9 -384.802)" fill="#006aff"/>
    <rect id="Rectangle_1519" data-name="Rectangle 1519" width="2.997" height="42.977" transform="translate(58.547 88.805)" fill="#40414d"/>
    <rect id="Rectangle_1520" data-name="Rectangle 1520" width="2.997" height="42.977" transform="translate(124.012 88.805)" fill="#40414d"/>
    <path id="Path_709" data-name="Path 709" d="M243.1,386.78h69.254a4.852,4.852,0,0,1,4.852,4.852v.644H238.25v-.644a4.852,4.852,0,0,1,4.852-4.852Z" transform="translate(-185.7 -301.473)" fill="#dfe6f5"/>
    <path id="Path_710" data-name="Path 710" d="M242.1,386.78h69.254a4.852,4.852,0,0,1,4.852,4.852v.644H237.25v-.644a4.852,4.852,0,0,1,4.852-4.852Z" transform="translate(-184.92 -301.473)" opacity="0.1"/>
    <path id="Path_711" data-name="Path 711" d="M243.1,382.24h69.254a4.852,4.852,0,0,1,4.852,4.852v.644H238.25v-.644A4.852,4.852,0,0,1,243.1,382.24Z" transform="translate(-185.7 -297.935)" fill="#dfe6f5"/>
    <circle id="Ellipse_272" data-name="Ellipse 272" cx="5.997" cy="5.997" r="5.997" transform="translate(86.033 68.813)" fill="#ffd77c" stroke="#ffab50" stroke-miterlimit="10" stroke-width="1"/>
    <circle id="Ellipse_273" data-name="Ellipse 273" cx="4.753" cy="4.753" r="4.753" transform="translate(87.277 70.057)" fill="#ffd77c" stroke="#ffab50" stroke-miterlimit="10" stroke-width="1"/>
    <circle id="Ellipse_274" data-name="Ellipse 274" cx="3.622" cy="3.622" r="3.622" transform="translate(88.408 71.189)" fill="#ffd77c" stroke="#ffab50" stroke-miterlimit="10" stroke-width="1"/>
    <circle id="Ellipse_275" data-name="Ellipse 275" cx="2.036" cy="2.036" r="2.036" transform="translate(89.994 72.775)" fill="#ffd77c" stroke="#ffab50" stroke-miterlimit="10" stroke-width="1"/>
    <circle id="Ellipse_276" data-name="Ellipse 276" cx="5.997" cy="5.997" r="5.997" transform="translate(82.535 72.062)" fill="#ffd77c" stroke="#ffab50" stroke-miterlimit="10" stroke-width="1"/>
    <circle id="Ellipse_277" data-name="Ellipse 277" cx="4.753" cy="4.753" r="4.753" transform="translate(83.779 73.306)" fill="#ffd77c" stroke="#ffab50" stroke-miterlimit="10" stroke-width="1"/>
    <circle id="Ellipse_278" data-name="Ellipse 278" cx="3.622" cy="3.622" r="3.622" transform="translate(84.91 74.438)" fill="#ffd77c" stroke="#ffab50" stroke-miterlimit="10" stroke-width="1"/>
    <circle id="Ellipse_279" data-name="Ellipse 279" cx="2.036" cy="2.036" r="2.036" transform="translate(86.496 76.023)" fill="#ffd77c" stroke="#ffab50" stroke-miterlimit="10" stroke-width="1"/>
    <circle id="Ellipse_280" data-name="Ellipse 280" cx="5.997" cy="5.997" r="5.997" transform="translate(89.531 72.062)" fill="#ffd77c" stroke="#ffab50" stroke-miterlimit="10" stroke-width="1"/>
    <circle id="Ellipse_281" data-name="Ellipse 281" cx="4.753" cy="4.753" r="4.753" transform="translate(90.775 73.306)" fill="#ffd77c" stroke="#ffab50" stroke-miterlimit="10" stroke-width="1"/>
    <circle id="Ellipse_282" data-name="Ellipse 282" cx="3.622" cy="3.622" r="3.622" transform="translate(91.906 74.438)" fill="#ffd77c" stroke="#ffab50" stroke-miterlimit="10" stroke-width="1"/>
    <circle id="Ellipse_283" data-name="Ellipse 283" cx="2.036" cy="2.036" r="2.036" transform="translate(93.492 76.023)" fill="#ffd77c" stroke="#ffab50" stroke-miterlimit="10" stroke-width="1"/>
    <path id="Path_712" data-name="Path 712" d="M360.6,346h24.987v1.173A8.822,8.822,0,0,1,376.765,356h-7.342a8.822,8.822,0,0,1-8.822-8.822Z" transform="translate(-281.065 -269.688)" fill="#006aff"/>
    <path id="Path_713" data-name="Path 713" d="M558.949,467.42a9.993,9.993,0,0,1-9.989,9.744H544a10.017,10.017,0,0,0,2.206.251h5a10,10,0,0,0,10-10Z" transform="translate(-456.681 -391.11)" opacity="0.1"/>
    <rect id="Rectangle_1521" data-name="Rectangle 1521" width="2.997" height="64.967" transform="translate(125.512 121.537) rotate(90)" fill="#40414d"/>
    <rect id="Rectangle_1522" data-name="Rectangle 1522" width="2.622" height="23.86" transform="translate(33.565 111.07)" fill="#40414d"/>
    <rect id="Rectangle_1523" data-name="Rectangle 1523" width="2.622" height="23.86" transform="translate(54.277 111.07)" fill="#40414d"/>
    <path id="Path_714" data-name="Path 714" d="M331.288,596.995c0,1.592-5.4,2.885-12.06,2.885s-11.8-1.29-11.8-2.885,5.137-2.885,11.8-2.885S331.288,595.409,331.288,596.995Z" transform="translate(-272.288 -489.858)" fill="#f6c6cd"/>
    <path id="Path_715" data-name="Path 715" d="M142.66,485.75h27.53v2.4a2.316,2.316,0,0,1-2.316,2.316H146.63a3.97,3.97,0,0,1-3.97-3.97Z" transform="translate(-111.193 -378.615)" fill="#40414d"/>
    <path id="Path_716" data-name="Path 716" d="M1.548,0h.582A1.544,1.544,0,0,1,3.674,1.544V32.77H2.792A2.792,2.792,0,0,1,0,29.978V1.544A1.544,1.544,0,0,1,1.548,0Z" transform="translate(25.282 79.889) rotate(-12.72)" fill="#40414d"/>
    <rect id="Rectangle_1524" data-name="Rectangle 1524" width="2.622" height="23.86" transform="translate(150.934 135.353) rotate(180)" fill="#40414d"/>
    <rect id="Rectangle_1525" data-name="Rectangle 1525" width="2.622" height="23.86" transform="translate(130.221 135.353) rotate(180)" fill="#40414d"/>
    <path id="Path_717" data-name="Path 717" d="M717.13,598.891c0,1.592,5.4,2.885,12.06,2.885s11.8-1.29,11.8-2.885S735.849,596,729.19,596,717.13,597.3,717.13,598.891Z" transform="translate(-591.627 -491.331)" fill="#f6c6cd"/>
    <path id="Path_718" data-name="Path 718" d="M3.97,0H25.214A2.316,2.316,0,0,1,27.53,2.316v2.4H0V3.97A3.97,3.97,0,0,1,3.97,0Z" transform="translate(153.031 112.28) rotate(180)" fill="#40414d"/>
    <path id="Path_719" data-name="Path 719" d="M2.788,0H3.67V31.231a1.544,1.544,0,0,1-1.544,1.544H1.544A1.544,1.544,0,0,1,0,31.231V2.792A2.792,2.792,0,0,1,2.788,0Z" transform="translate(152 112.276) rotate(-167.28)" fill="#40414d"/>
    <path id="Path_720" data-name="Path 720" d="M681.224,364.485l.774-.245a131.057,131.057,0,0,1-1.31-16.762v-.684c.015-.494.033-.984.057-1.462.031-.613.038-1.2.033-1.764.073-7.629-2.933-10.851-2.933-10.851s-3.529-5.033-5.644-6.012c-.183-.573-.393-1.31-.578-2.166.068-.046.135-.093.2-.141a28.547,28.547,0,0,0,2.5-2.089c1.085-1.017,2.126-2.256,2.069-3.655a2.679,2.679,0,0,0-.013-.408c-.2-1.687-1.954-2.958-2.662-4.557-.6-1.343-.417-2.839-.937-4.2s-2.338-2.631-3.71-1.914a7.318,7.318,0,0,0-1.231,1.087,4.68,4.68,0,0,1-4.16.562c-1.429-.4-1.853-2.038-3.851-2.042a2.322,2.322,0,0,1,.505.24,3.18,3.18,0,0,0-.505-.044,2.205,2.205,0,0,1,1.526,1.855,1.523,1.523,0,0,1-.018.159,5.874,5.874,0,0,1-2.805.17c-.957-.015-2.047.468-1.952,1.251a.758.758,0,0,0,0,.269c.126.593.92,1.041,1.017,1.59v.044a16.49,16.49,0,0,1-5.657,1.65c-.064,0-.035.077.057.19h-.057c-.359.038,2.155,2.025,2.442,2.155A35.087,35.087,0,0,0,657.8,317.9l.1.031a6.956,6.956,0,0,0-.567,2.755,7.364,7.364,0,0,0,5.748,7.058c.618.721,1.266,1.513,1.857,2.3h-.042a23.951,23.951,0,0,0-3.529,15.437c-2.444-.139-7.7-.783-11.689-3.708-5.388-3.941-11.4-2.759-10.146-.395s7.669,4.334,8.7,4.532c.1.018.322.071.644.15-1.275.24-2.148.662-2.1,1.228.1,1.083,5.6,4.532,8.91,4.729a34.863,34.863,0,0,1,6.906,1.4c.2,4.532-.9,5.891-.9,5.891s.326.2.867.485l-.232.662a16.842,16.842,0,0,1-4.513,1.912,24.787,24.787,0,0,0-5.567,1.853l-7.461,3.606a4.321,4.321,0,0,0-2.47,3.394c-.163,1.528.3,3.438,2.794,4.954a5.811,5.811,0,0,0,2.9,4.019c3.86,2.567,14,10.258,15.384,11.308.026,1.877-.221,5.642-2.536,6.229-2.9.737-.567,3.529,1.78,3.419a3.074,3.074,0,0,0,1.745.128c2.488-.591,11.606-3.749,12.228-8.474a4.531,4.531,0,0,0,.035-.618,4.12,4.12,0,0,0-.578-2.3,4.134,4.134,0,0,1,.236.662,7.449,7.449,0,0,0-4.021-3.41v-.049c-.221-.086-.441-.157-.622-.221a1.851,1.851,0,0,0-.029-.382l-14.3-9.852s6.217-5.123,12.642-4.334,7.448-.377,7.448-.377,3.3-3.134,3.626-6.742l.207-.055S681.255,364.9,681.224,364.485Z" transform="translate(-531.01 -266.212)" fill="url(#linear-gradient)"/>
    <path id="Path_721" data-name="Path 721" d="M737.243,668.868s.584,6.434-2.34,7.214-.194,3.9,2.144,3.308,10.92-3.705,11.5-8.381-5.849-6.24-5.849-6.24Z" transform="translate(-604.49 -544.933)" fill="#b8616e"/>
    <path id="Path_722" data-name="Path 722" d="M737.243,668.868s.584,6.434-2.34,7.214-.194,3.9,2.144,3.308,10.92-3.705,11.5-8.381-5.849-6.24-5.849-6.24Z" transform="translate(-604.49 -544.933)" opacity="0.05"/>
    <path id="Path_723" data-name="Path 723" d="M742.573,669.748s.584,6.434-2.34,7.214-.194,3.9,2.144,3.308,10.92-3.705,11.5-8.381-5.849-6.24-5.849-6.24Z" transform="translate(-608.644 -545.619)" fill="#b8616e"/>
    <path id="Path_724" data-name="Path 724" d="M763.454,666.55l-5.454,4.1s.024.278.04.721c2.06-.565,6.548-2.064,6.617-4.411A10.567,10.567,0,0,0,763.454,666.55Z" transform="translate(-623.482 -546.321)" opacity="0.1"/>
    <rect id="Rectangle_1526" data-name="Rectangle 1526" width="2.34" height="1.756" transform="translate(134.22 64.171)" fill="#f8bdc5"/>
    <path id="Path_725" data-name="Path 725" d="M681.544,541s-3.716,2.92-6.769,3.613a22.532,22.532,0,0,0-5.238,1.833l-7.02,3.569a4.265,4.265,0,0,0-2.325,3.359c-.2,1.985.6,4.6,5.362,6.149L680.567,572l4.68-3.9-15.988-12.281,12.285-7.6Z" transform="translate(-547.225 -448.461)" fill="#758ac8"/>
    <path id="Path_726" data-name="Path 726" d="M681.544,541s-3.716,2.92-6.769,3.613a22.532,22.532,0,0,0-5.238,1.833l-7.02,3.569a4.265,4.265,0,0,0-2.325,3.359c-.2,1.985.6,4.6,5.362,6.149L680.567,572l4.68-3.9-15.988-12.281,12.285-7.6Z" transform="translate(-547.225 -448.461)" opacity="0.1"/>
    <path id="Path_727" data-name="Path 727" d="M669.641,459.695s-7.214.194-12.285-3.705-10.723-2.73-9.554-.39,7.214,4.29,8.189,4.484,15.013,4.1,15.013,4.1Z" transform="translate(-537.468 -380.218)" fill="#f8bdc5"/>
    <path id="Path_728" data-name="Path 728" d="M669.641,459.695s-7.214.194-12.285-3.705-10.723-2.73-9.554-.39,7.214,4.29,8.189,4.484,15.013,4.1,15.013,4.1Z" transform="translate(-537.468 -380.218)" opacity="0.05"/>
    <path id="Path_729" data-name="Path 729" d="M689.457,533.06l-2.34,7.02s-13.161,8.092-14.235,9.164c-.834.834-1.95,4.1,1.95,6.824s14.623,11.31,14.623,11.31,8.189-1.764,7.6-5.073l-13.454-9.749s5.849-5.073,11.895-4.29,7.02-.39,7.02-.39,4.68-4.685,3.119-9.162S689.457,533.06,689.457,533.06Z" transform="translate(-556.503 -442.273)" fill="#758ac8"/>
    <path id="Path_730" data-name="Path 730" d="M737.65,368.321s6.63,7.214,6.24,9.358,5.265-6.24,5.265-6.24a21.687,21.687,0,0,1-1.365-8.97Z" transform="translate(-607.621 -309.307)" fill="#f8bdc5"/>
    <path id="Path_731" data-name="Path 731" d="M745.972,403.611a19.368,19.368,0,0,1,1.427-1.361,19.786,19.786,0,0,0,2.733-2.728c1.365-1.764,6.434,5.849,6.434,5.849s3.119,3.509,2.73,11.895a192.8,192.8,0,0,0,.487,19.6l-1.18.329a6.755,6.755,0,0,1-5.977-.849c-1.557-1.076-3.529-2.206-5.029-2.307a13.591,13.591,0,0,1-5.558-1.853s1.268-3.022-.682-12.772a22.769,22.769,0,0,1,3.019-16.681S744.77,404.851,745.972,403.611Z" transform="translate(-610.157 -337.981)" opacity="0.1"/>
    <path id="Path_732" data-name="Path 732" d="M760.5,433.9l-1.169.39-.695.232a6.753,6.753,0,0,1-5.977-.849c-1.555-1.074-3.529-2.206-5.029-2.307a15.945,15.945,0,0,1-6.229-2.34s1.95-2.534,0-12.285a22.733,22.733,0,0,1,3.022-16.672s.393,2.111,1.595.869a19.129,19.129,0,0,1,1.425-1.359,19.786,19.786,0,0,0,2.733-2.728c1.365-1.764,6.434,5.849,6.434,5.849s3.119,3.509,2.73,11.895c-.042.882-.06,1.791-.062,2.711A133.748,133.748,0,0,0,760.5,433.9Z" transform="translate(-610.189 -335.9)" fill="#5e52ad"/>
    <path id="Path_733" data-name="Path 733" d="M734.5,474.991l.194,4.29s-10.335.584-12.479-1.559,5.845,6.306,7.609,6.824a44.389,44.389,0,0,0,8.176.962,3.308,3.308,0,0,0,3.088-1.872,3.121,3.121,0,0,0,.243-1.82,51.576,51.576,0,0,1,0-8Z" transform="translate(-595.31 -396.098)" opacity="0.1"/>
    <path id="Path_734" data-name="Path 734" d="M701.326,473.221l.194,4.29s-10.335.584-12.479-1.559-9.9-1.67-9.749,0c.1,1.072,5.265,4.484,8.381,4.68s7.212,1.625,8.977,2.144a44.39,44.39,0,0,0,8.176.962,3.308,3.308,0,0,0,3.088-1.872,3.121,3.121,0,0,0,.243-1.82,51.578,51.578,0,0,1,0-8Z" transform="translate(-562.132 -394.719)" fill="#f8bdc5"/>
    <path id="Path_735" data-name="Path 735" d="M775.844,420.765s-4.484.584-3.9,7.214,1.365,7.214,1.365,7.214,6.63-.584,7.408-.781.39-7.408.39-7.408S780.912,420.571,775.844,420.765Z" transform="translate(-634.31 -354.741)" opacity="0.1"/>
    <path id="Path_736" data-name="Path 736" d="M775.844,419.884s-4.484.584-3.9,7.214,1.365,7.214,1.365,7.214,6.63-.584,7.408-.781.39-7.408.39-7.408S780.912,419.686,775.844,419.884Z" transform="translate(-634.31 -354.055)" fill="#5e52ad"/>
    <path id="Path_737" data-name="Path 737" d="M748.158,367.316c-.307-1.544.322-2.02.487-4L738.5,369.169s1.162,1.266,2.483,2.891a7.227,7.227,0,0,0,1.806.221C745.448,372.292,746.9,369.438,748.158,367.316Z" transform="translate(-608.283 -309.97)" opacity="0.1"/>
    <circle id="Ellipse_284" data-name="Ellipse 284" cx="7.214" cy="7.214" r="7.214" transform="translate(127.102 47.695)" fill="#f8bdc5"/>
    <path id="Path_738" data-name="Path 738" d="M715.347,321.628a2.442,2.442,0,0,0-.408,3.386,8.752,8.752,0,0,0,3.112,2.508,1.885,1.885,0,0,0,1.1.36,1.626,1.626,0,0,0,.79-.4,27.239,27.239,0,0,0,2.356-2.067c1.072-1.054,2.1-2.353,1.934-3.824-.19-1.67-1.839-2.927-2.505-4.508-.56-1.323-.393-2.808-.882-4.16s-2.206-2.6-3.489-1.895A7.034,7.034,0,0,0,716.2,312.1a4.237,4.237,0,0,1-3.915.558c-1.345-.4-1.745-2.018-3.622-2.022a2.1,2.1,0,0,1,1.42,2.188,5.288,5.288,0,0,1-2.647.168c-.906-.015-1.985.492-1.828,1.308.137.662,1.092,1.154.951,1.815a14.945,14.945,0,0,1-5.324,1.632c-.337.038,2.027,2,2.3,2.133a31.715,31.715,0,0,0,3.214,1.18A14.6,14.6,0,0,0,715.347,321.628Z" transform="translate(-579.211 -268.909)" opacity="0.1"/>
    <path id="Path_739" data-name="Path 739" d="M715.347,320.738a2.442,2.442,0,0,0-.408,3.386,8.753,8.753,0,0,0,3.112,2.508,1.885,1.885,0,0,0,1.1.359,1.626,1.626,0,0,0,.79-.4,27.23,27.23,0,0,0,2.356-2.067c1.072-1.054,2.1-2.353,1.934-3.824-.19-1.67-1.839-2.927-2.505-4.508-.56-1.323-.393-2.808-.882-4.16s-2.206-2.6-3.489-1.895a7.034,7.034,0,0,0-1.158,1.076,4.237,4.237,0,0,1-3.915.558c-1.345-.4-1.745-2.018-3.622-2.022a2.1,2.1,0,0,1,1.42,2.188,5.287,5.287,0,0,1-2.647.168c-.906-.015-1.985.492-1.828,1.308.137.662,1.092,1.154.951,1.815a14.945,14.945,0,0,1-5.324,1.632c-.337.038,2.027,2,2.3,2.133a31.715,31.715,0,0,0,3.214,1.18A14.615,14.615,0,0,0,715.347,320.738Z" transform="translate(-579.211 -268.215)" fill="#916168"/>
    <path id="Path_740" data-name="Path 740" d="M753.657,680.89a4.3,4.3,0,0,1,.315,2.3c-.584,4.68-9.164,7.8-11.5,8.381a3.1,3.1,0,0,1-3.138-1.279,3.038,3.038,0,0,0,3.335,1.67c2.34-.584,10.92-3.705,11.5-8.381A4.281,4.281,0,0,0,753.657,680.89Z" transform="translate(-608.93 -557.498)" fill="#fff" opacity="0.1"/>
    <path id="Path_741" data-name="Path 741" d="M301.954,398.908h0c-.174-.393-1.079-1.158-5.439-1.323-2.986-.112-4-1.689-4.279-3.229a4.475,4.475,0,0,0,2-.549s-.013-.071-.035-.2l.035-.026a20.662,20.662,0,0,1-.3-3.361,12.933,12.933,0,0,1,.3-2.867,8.457,8.457,0,0,0,.152-1.89,68.8,68.8,0,0,0-1.292-10.34l-.181-5.476a3.8,3.8,0,0,0-2.071-3.286,3.116,3.116,0,0,0-1.4-.349s-6.912-1.09-13.134-1.683c-.441-.355-2-1.312-5.56-.763l-2.051-6a1.71,1.71,0,0,1-.035-.221c.073-.763.582-1.912,2.958-1.985l.5.441s.088-.174.236-.441c2.947-.033,19-.2,19.826,0,.911.221,8.891-1.557,9.12-1.778,3.1-3.024-9.12-1.557-9.12-1.557a63.521,63.521,0,0,1-9.065-.362c1.97-2.953,3.822-12.977,3.822-12.977s7.058-3.558,5.015-5.558-8.207,4.446-8.207,4.446-2.508,7.338-3.648,9.561c-.441.882-1.012,1.063-1.522.962.232-.185.382-.3.382-.3s-5.015-4-5.472-5.558a3.713,3.713,0,0,0-.335-.73,6.236,6.236,0,0,0-1.689-3.721,3.823,3.823,0,0,0-.569-.5c-.278-.2-.593-.371-.856-.587h0c.148-.679.32-1.385.5-2.069a7.41,7.41,0,0,0,6.617-7.278,7.178,7.178,0,0,0-.2-1.678,3.233,3.233,0,0,0,2.867-1.381,3.792,3.792,0,0,0,.1-3.829,4.74,4.74,0,0,0-1.01-1.275,5.975,5.975,0,0,0-2.316-1.447,6.52,6.52,0,0,1-2.192-.933,9.721,9.721,0,0,1-.73-1.1,5.642,5.642,0,0,0-.882-1.028,8.066,8.066,0,0,0-4.246-2.144,22.7,22.7,0,0,0-5.893-.108c-.734.051-1.6.181-1.928.82a3.909,3.909,0,0,0-.119,1.592c-.1,1.7-2.053,2.647-3.749,3.059s-3.719.77-4.537,2.265c-.743,1.35-.221,2.986.018,4.5a11.012,11.012,0,0,1-1.661,7.629,31.527,31.527,0,0,0-2.3,3.379,6.442,6.442,0,0,0-.428,4.38,3.086,3.086,0,0,1,.19,1.3,2.269,2.269,0,0,1-.516.968,11.689,11.689,0,0,1-8.315,4.307,2.382,2.382,0,0,0,.759,1.145,5.481,5.481,0,0,0,1.575,1.087,23.78,23.78,0,0,0,4.83,1.8,8.417,8.417,0,0,0,3.445.293,3.61,3.61,0,0,0,2.73-1.886c.273-.6.313-1.279.556-1.89.483-1.222,1.681-2.014,2.49-3.061a76.553,76.553,0,0,0-.386,8.125v2.325a17.2,17.2,0,0,1-2.12,9,2.285,2.285,0,0,0-.285,1.323,1.451,1.451,0,0,0,.5,1.348,13.067,13.067,0,0,0-.192,2.311c-.026,2.788.915,6.531,5.909,7.479l8.891-.441s12.539-2.446,15.957-.662a1.262,1.262,0,0,1,1,1.231,2.831,2.831,0,0,1-.086.549,8.632,8.632,0,0,0-.108,1.749c-.015,3.749.792,12.258.792,12.258v3.608a5.672,5.672,0,0,0-1.18,3.055v.062a.191.191,0,0,0,.013.082c.013.026,0,.048.015.073a.213.213,0,0,1,.02.071.544.544,0,0,0,.029.077c.011.024.015.04.024.06s.029.057.044.084l.026.046a1.061,1.061,0,0,0,.088.121c1.14,1.323,6.837,3.884,8.663,3.78,1.939-.11,8.434.221,8.663-2.669a.351.351,0,0,0-.015-.262Z" transform="translate(-219.192 -270.198)" fill="url(#linear-gradient-2)"/>
    <path id="Path_742" data-name="Path 742" d="M443.454,672.665s-2.647,3.308-1.544,4.632,6.617,3.853,8.381,3.749c1.875-.11,8.161.221,8.381-2.647,0,0,.441-1.323-5.293-1.544s-3.97-6.176-3.97-6.176Z" transform="translate(-376.898 -549.54)" fill="#594c76"/>
    <path id="Path_743" data-name="Path 743" d="M305.363,549.562s-2.647,9.043,5.293,10.587l8.6-.441s12.131-2.426,15.439-.662c0,0,1.323.221.882,1.985s.662,13.674.662,13.674v3.97s7.5,0,8.381-.882a18.436,18.436,0,0,1,0-6.4c.662-2.867-1.1-11.91-1.1-11.91l-.174-5.443a3.785,3.785,0,0,0-2-3.264,2.955,2.955,0,0,0-1.354-.344s-15-2.426-20.291-1.985S305.363,549.562,305.363,549.562Z" transform="translate(-270.347 -454.227)" opacity="0.1"/>
    <path id="Path_744" data-name="Path 744" d="M305.363,548.562s-2.647,9.043,5.293,10.587l8.6-.441s12.131-2.426,15.439-.662c0,0,1.323.221.882,1.985s.662,13.674.662,13.674v3.97s7.5,0,8.381-.882a18.436,18.436,0,0,1,0-6.4c.662-2.867-1.1-11.91-1.1-11.91l-.174-5.443a3.785,3.785,0,0,0-2-3.264,2.955,2.955,0,0,0-1.354-.344s-15-2.426-20.291-1.985S305.363,548.562,305.363,548.562Z" transform="translate(-270.347 -453.448)" fill="#8b9cd1"/>
    <path id="Path_745" data-name="Path 745" d="M403.624,421.225s1.764,2.206,2.867,0,3.529-9.484,3.529-9.484,5.955-6.4,7.94-4.411-4.852,5.514-4.852,5.514-2.426,13.454-4.632,13.674a41.858,41.858,0,0,1-5.514,0l-1.1-2.426Z" transform="translate(-345.891 -343.975)" fill="#f8bdc5"/>
    <path id="Path_746" data-name="Path 746" d="M403.624,421.225s1.764,2.206,2.867,0,3.529-9.484,3.529-9.484,5.955-6.4,7.94-4.411-4.852,5.514-4.852,5.514-2.426,13.454-4.632,13.674a41.858,41.858,0,0,1-5.514,0l-1.1-2.426Z" transform="translate(-345.891 -343.975)" opacity="0.05"/>
    <path id="Path_747" data-name="Path 747" d="M359.83,421.68s3.97,4.632,4.411,6.176,5.293,5.514,5.293,5.514-3.529,2.647-2.867,3.97-4.632-4.411-4.632-4.411l-6.176-9.043Z" transform="translate(-310.037 -355.458)" fill="#eb6475"/>
    <path id="Path_748" data-name="Path 748" d="M359.83,421.68s3.97,4.632,4.411,6.176,5.293,5.514,5.293,5.514-3.529,2.647-2.867,3.97-4.632-4.411-4.632-4.411l-6.176-9.043Z" transform="translate(-310.037 -355.458)" opacity="0.1"/>
    <path id="Path_749" data-name="Path 749" d="M349.99,390.762s-1.985,6.4-1.985,8.822-8.381-.662-8.161-1.985,4.852-6.176,5.073-8.161S349.99,390.762,349.99,390.762Z" transform="translate(-297.55 -329.833)" fill="#f8bdc5"/>
    <path id="Path_750" data-name="Path 750" d="M315.073,417.2s-7.719-1.985-8.822,9.263.882,12.572-2.426,19.409,22.5.882,22.5.882-1.323-1.544-5.514-.882l-1.985-5.955s-.662-2.647,3.088-2.647,1.985-7.719,1.985-7.719-1.985-6.617-3.088-7.278S317.72,417.644,315.073,417.2Z" transform="translate(-269.25 -351.863)" opacity="0.1"/>
    <path id="Path_751" data-name="Path 751" d="M315.073,415.2s-7.719-1.985-8.822,9.263.882,12.572-2.426,19.409,22.5.882,22.5.882-1.323-1.544-5.514-.882l-1.985-5.955s-.662-2.647,3.088-2.647,1.985-7.719,1.985-7.719-1.985-6.617-3.088-7.278S317.72,415.644,315.073,415.2Z" transform="translate(-269.25 -350.304)" fill="#eb6475"/>
    <path id="Path_752" data-name="Path 752" d="M386.963,487.68s16.1,1.764,18.747,1.323c0,0,11.822-1.456,8.822,1.544-.221.221-7.94,1.985-8.822,1.764s-19.629,0-19.629,0l-.221-2.206Z" transform="translate(-333.42 -406.901)" fill="#f8bdc5"/>
    <path id="Path_753" data-name="Path 753" d="M332.548,432.531l11.689,10.587s2.206-4.411,2.867-4.411-7.94-13.013-7.94-13.013-2.206-2.647-3.529-1.323S330.343,424.812,332.548,432.531Z" transform="translate(-291.356 -357.266)" opacity="0.1"/>
    <path id="Path_754" data-name="Path 754" d="M331.548,430.531l11.689,10.587s2.206-4.411,2.867-4.411-7.94-13.013-7.94-13.013-2.206-2.647-3.529-1.323S329.343,422.812,331.548,430.531Z" transform="translate(-290.577 -355.708)" fill="#eb6475"/>
    <circle id="Ellipse_285" data-name="Ellipse 285" cx="7.278" cy="7.278" r="7.278" transform="translate(43.177 50.342)" fill="#f8bdc5"/>
    <path id="Path_755" data-name="Path 755" d="M280.418,328.852a3.008,3.008,0,0,0,3.476-1.206,3.836,3.836,0,0,0,.093-3.8,5.379,5.379,0,0,0-3-2.479,5.79,5.79,0,0,1-2.186-.979,6.444,6.444,0,0,1-.862-1.253,7.214,7.214,0,0,0-4.735-2.927,21.532,21.532,0,0,0-5.7-.108c-.71.051-1.544.179-1.866.814a3.962,3.962,0,0,0-.115,1.579c-.1,1.692-1.985,2.629-3.633,3.035s-3.558.787-4.36,2.278c-.719,1.339-.205,2.962.018,4.466a11.147,11.147,0,0,1-1.606,7.55,31.5,31.5,0,0,0-2.221,3.352,6.537,6.537,0,0,0-.415,4.345,3.143,3.143,0,0,1,.185,1.29,2.27,2.27,0,0,1-.5.959,11.222,11.222,0,0,1-8.044,4.283,3.544,3.544,0,0,0,2.038,1.985,22.648,22.648,0,0,0,4.671,1.782,7.956,7.956,0,0,0,3.333.291,3.514,3.514,0,0,0,2.647-1.87c.265-.6.3-1.268.538-1.877.527-1.365,1.932-2.19,2.686-3.445a5.3,5.3,0,0,0,1.184-2.726,5.211,5.211,0,0,1,1.725-3.694,4.159,4.159,0,0,1,4.191-.035c1.323.655,2.142.4,3.247,1.361a26.907,26.907,0,0,0,6.442,4.151c-.221-1.923-.576-4.069-2.137-5.214-.441-.329-1-.58-1.233-1.083-.373-.8.265-1.778-.024-2.614s-1.387-1.145-1.875-1.9a2.132,2.132,0,0,1,.086-2.181,5.881,5.881,0,0,1,1.612-1.614q.814-.615,1.65-1.2a5.893,5.893,0,0,0,1.341-1.169c.221-.3.366-.964.673-1.178C278.516,327.283,279.7,328.571,280.418,328.852Z" transform="translate(-223.588 -273.06)" opacity="0.1"/>
    <path id="Path_756" data-name="Path 756" d="M279.418,327.852a3.008,3.008,0,0,0,3.476-1.206,3.836,3.836,0,0,0,.093-3.8,5.379,5.379,0,0,0-3-2.479,5.79,5.79,0,0,1-2.186-.979,6.444,6.444,0,0,1-.862-1.253,7.214,7.214,0,0,0-4.735-2.927,21.533,21.533,0,0,0-5.7-.108c-.71.051-1.544.179-1.866.814a3.962,3.962,0,0,0-.115,1.579c-.1,1.692-1.985,2.629-3.633,3.035s-3.558.787-4.36,2.278c-.719,1.339-.205,2.962.018,4.466a11.147,11.147,0,0,1-1.606,7.55,31.5,31.5,0,0,0-2.221,3.352,6.537,6.537,0,0,0-.415,4.345,3.143,3.143,0,0,1,.185,1.29,2.27,2.27,0,0,1-.5.959,11.222,11.222,0,0,1-8.044,4.283,3.544,3.544,0,0,0,2.038,1.985,22.647,22.647,0,0,0,4.671,1.782,7.956,7.956,0,0,0,3.333.291,3.514,3.514,0,0,0,2.647-1.87c.265-.6.3-1.268.538-1.877.527-1.365,1.932-2.19,2.686-3.445a5.3,5.3,0,0,0,1.184-2.726,5.211,5.211,0,0,1,1.725-3.694,4.159,4.159,0,0,1,4.191-.035c1.323.655,2.142.4,3.247,1.361a26.908,26.908,0,0,0,6.442,4.151c-.221-1.923-.576-4.069-2.137-5.214-.441-.329-1-.58-1.233-1.083-.373-.8.265-1.778-.024-2.614s-1.387-1.145-1.875-1.9a2.132,2.132,0,0,1,.086-2.181,5.881,5.881,0,0,1,1.612-1.615q.814-.615,1.65-1.2a5.893,5.893,0,0,0,1.341-1.169c.221-.3.366-.964.673-1.178C277.516,326.283,278.7,327.571,279.418,327.852Z" transform="translate(-222.809 -272.28)" fill="#916168"/>
    <g id="Group_152" data-name="Group 152" transform="translate(64.735 121.14)" opacity="0.1">
      <path id="Path_757" data-name="Path 757" d="M475.709,672.418a7.622,7.622,0,0,1,.251-1.738l-.11.037A7.677,7.677,0,0,0,475.709,672.418Z" transform="translate(-468.185 -670.68)" fill="#fff"/>
      <path id="Path_758" data-name="Path 758" d="M450.264,700.216c-1.764.1-7.278-2.426-8.381-3.749a1.175,1.175,0,0,1-.256-.626,1.385,1.385,0,0,0,.256,1.068c1.1,1.323,6.617,3.853,8.381,3.749,1.875-.11,8.161.221,8.381-2.647a.357.357,0,0,0-.031-.234C458.11,700.419,452.093,700.108,450.264,700.216Z" transform="translate(-441.607 -690.291)" fill="#fff"/>
    </g>
    <rect id="Rectangle_1527" data-name="Rectangle 1527" width="0.221" height="9.043" transform="translate(82.105 65.229)" fill="#ffd77c" stroke="#ffab50" stroke-miterlimit="10" stroke-width="0.25"/>
    <rect id="Rectangle_1528" data-name="Rectangle 1528" width="0.221" height="9.043" transform="translate(82.325 65.229)" fill="#ffd77c" stroke="#ffab50" stroke-miterlimit="10" stroke-width="0.25"/>
    <rect id="Rectangle_1529" data-name="Rectangle 1529" width="0.221" height="9.043" transform="translate(82.546 65.229)" fill="#ffd77c" stroke="#ffab50" stroke-miterlimit="10" stroke-width="0.25"/>
    <rect id="Rectangle_1530" data-name="Rectangle 1530" width="0.221" height="9.043" transform="translate(82.766 65.229)" fill="#ffd77c" stroke="#ffab50" stroke-miterlimit="10" stroke-width="0.25"/>
    <rect id="Rectangle_1531" data-name="Rectangle 1531" width="0.221" height="9.043" transform="translate(82.987 65.229)" fill="#ffd77c" stroke="#ffab50" stroke-miterlimit="10" stroke-width="0.25"/>
    <rect id="Rectangle_1532" data-name="Rectangle 1532" width="0.221" height="9.043" transform="translate(83.208 65.229)" fill="#ffd77c" stroke="#ffab50" stroke-miterlimit="10" stroke-width="0.25"/>
    <rect id="Rectangle_1533" data-name="Rectangle 1533" width="0.221" height="9.043" transform="translate(83.428 65.229)" fill="#ffd77c" stroke="#ffab50" stroke-miterlimit="10" stroke-width="0.25"/>
  </g>
</svg>
