<svg xmlns="http://www.w3.org/2000/svg" width="237.333" height="129.611" viewBox="0 0 237.333 129.611">
  <g id="undraw_Hamburger_8ge6" transform="translate(-0.001 0)">
    <path id="Path_866" data-name="Path 866" d="M221.716,643.656q33.223-.392,66.443.449a21.936,21.936,0,0,1,5.565.615c1.682.5,2.977,1.587,2.517,2.627q-12.968.384-25.963.237c-1.887.924-3.958,2.316-2.8,3.562.8.862,2.783,1.119,4.515,1.121,3.137,0,6.286-.511,9.377-.209s6.174,1.928,5.269,3.615c-.687,1.281-3.3,1.916-5.669,2.029s-4.8-.122-7.124.181a51.667,51.667,0,0,0-6.178,1.561,57.461,57.461,0,0,1-10.413,1.3c-27.259,1.665-54.743,1.652-82.163,1.637-11.1-.006-22.352-.023-33.071-1.643-6.11-.924-11.965-2.358-18.153-3.1-7.391-.889-15.029-.768-22.587-.742q-19.9.07-39.771-.767c-.986-.042-2.2-.182-2.462-.717-.31-.624.949-1.111,2.014-1.36a116.972,116.972,0,0,1,18.35-2.737,54.438,54.438,0,0,0,9.233-1.057c2.878-.724,5.393-2.244,5.366-4.016-.008-.541-.236-1.119.215-1.6.6-.634,2.073-.779,3.345-.849,14.1-.766,28.271-1.086,42.433-.958,4.981.045,9.983.145,14.929-.19,4.053-.275,8.022-.839,12.016-1.313,5.361-.636,28.693-3.931,32.1-1.258,2.548,2-2.712,2.433,4.121,3.25C209.118,644.034,215.681,643.727,221.716,643.656Z" transform="translate(-59 -532.77)" fill="#f2f2f2"/>
    <path id="Path_867" data-name="Path 867" d="M393.333,570.778s-8.214,16.252-1.223,16.252,95.068.349,97.515-4.194c1.714-3.183.769-14.516.049-21.016a4.97,4.97,0,0,0-5.215-4.416c-19.049,1.051-90.212,4.948-89.9,4.461.612-.961.175-.7.175-.7S391.935,570.079,393.333,570.778Z" transform="translate(-316.842 -469.034)" fill="#3f3d56"/>
    <path id="Path_868" data-name="Path 868" d="M505.18,561.821a4.97,4.97,0,0,0-5.215-4.416c-19.049,1.051-90.212,4.948-89.9,4.462.612-.961.175-.7.175-.7s-.624,1.99-1.135,4.162c.072-.007.127.061-.109.476q-.031.141-.062.281c2.85.282,71.2-3.461,89.811-4.488a4.97,4.97,0,0,1,5.215,4.416c.535,4.833,1.194,12.336.793,17.176a1.044,1.044,0,0,0,.381-.354C506.845,579.654,505.9,568.321,505.18,561.821Z" transform="translate(-332.174 -469.034)" opacity="0.1"/>
    <path id="Path_869" data-name="Path 869" d="M388.223,467.9c-.91-.279-2.063-.639-1.959-1.227.055-.312.473-.556.776-.818.583-.5.741-1.215.114-1.7a2.593,2.593,0,0,0-2.689-.037c-.284.265-.267.6-.414.9-.458.935-2.312,1.345-3.886,1.708s-3.336,1.039-3.188,2.006c.161,1.055,2.591,1.991,1.613,2.89-.354.326-1.1.508-1.259.881-.112.263.113.529.33.769l1.547,1.7c.615.678,1.25,1.416,1.043,2.171-.409,1.5-3.729,2.068-6.362,1.9a5.264,5.264,0,0,0-2.759.259.9.9,0,0,0-.34,1.215,5.01,5.01,0,0,0,3.622,2.4c-2,.4-2.791,2.062-1.407,2.98a4.118,4.118,0,0,1-2.454.07c-.684.63-.282,1.494.586,2.046a11.634,11.634,0,0,0,3.288,1.156l-1.114,1.042c.806.63,2.547.408,3.722.01a7.989,7.989,0,0,1,3.764-.724c1.234.2,2.167,1.018,3.423.877a2.207,2.207,0,0,0,1.74-1.275l1.289-2.3c1.835.287,3.765-.97,3.028-1.973,2.054.221,4.076-1.113,3.4-2.244a6.574,6.574,0,0,1,2.241,2.852,2.723,2.723,0,0,0,.729,1.334,2.423,2.423,0,0,0,2.119.383c-.375.726-.678,1.573.092,2.19s2.991.441,2.893-.314a10.678,10.678,0,0,0,3.956,1.016c1.467.038,3.072-.521,3.206-1.357a20.494,20.494,0,0,0,6.406,1.031c.185-.559,1.478-.74,2.445-.6a20.142,20.142,0,0,0,2.859.466c1,0,2.067-.6,1.557-1.088a20.584,20.584,0,0,0,6.38.322c2.01-.213,3.914-.72,5.95-.83a14.211,14.211,0,0,1,6.057.957,3.5,3.5,0,0,0,2.229.412,2.662,2.662,0,0,0,.9-.608c1.216-.922,3.7-.745,5.619-.383s4.149.8,5.829.158c.634-.242,1.1-.615,1.776-.818,2.416-.727,5.308,1.136,7.872.6a15.614,15.614,0,0,1,2.4-.644c1.569-.091,2.606.972,4.132,1.2,1.583.237,3.3-.726,2.913-1.635a14.21,14.21,0,0,0,4.493-.625l-.719-1.293c1.791-.029,3.108-1.312,2.278-2.22,1.8-.342,3.216-1.262,3.585-2.324s-.327-2.222-1.757-2.931a8.222,8.222,0,0,1-2.435-1.288c-.347-.415-.3-.9-.432-1.351-.3-.992-1.578-1.868-3.234-2.21a17.455,17.455,0,0,1-2.158-.434c-.651-.229-1.122-.725-.746-1.106a7.623,7.623,0,0,1,.83-.5c1-.742-.718-1.681-2.189-2.1l3.512-.115.754-3.419c-1.389,1.13-4.993.892-5.9-.389a3.33,3.33,0,0,0,3.193-.777,2.456,2.456,0,0,0,.269-2.2,1.065,1.065,0,0,0-.585-.872c-.344-.164-.891-.232-1-.48s.33-.476.4-.734c.127-.5-1.013-.714-1.782-.954-1.815-.566-2.695-2.155-4.76-2.1a2.567,2.567,0,0,0-2.624,2.789,2.582,2.582,0,0,1-2.746,2.72,5.621,5.621,0,0,1-2.187-.585l-5.875-2.534a14.072,14.072,0,0,0-2.413-.865,18.808,18.808,0,0,0-3.773-.338l-8.218-.187a3.827,3.827,0,0,0-1.246.107,2.335,2.335,0,0,0-.9.672c-1.144,1.074-3.835,1.5-5.776.9-.515-.157-.976-.373-1.522-.491-1.718-.372-3.521.317-5.307.565-2.927.408-6.563-.294-8.673.935-.7.41-1.077.97-1.728,1.407a3.2,3.2,0,0,1-2.65.4,3.1,3.1,0,0,1-.345,2.379,3.735,3.735,0,0,1-3.3,1.16c-.726-.192-.668-.8-.325-1.214s.87-.835.7-1.281-.947-.7-1.527-1.009-.968-.894-.351-1.179c-.416-.534-1.91-.469-2.567-.021a2.034,2.034,0,0,0-.795,1.662,1.852,1.852,0,0,1-.989,1.613c-1.3.665-3.789.32-4.65,1.187-.273.275-.29.607-.446.911-.7,1.355-3.713,1.706-6.177,1.817a3.024,3.024,0,0,0-.034.855C390.238,468.829,388.834,468.086,388.223,467.9Z" transform="translate(-301.942 -390.512)" fill="#61ab43"/>
    <path id="Path_870" data-name="Path 870" d="M839.561,496.62a2.456,2.456,0,0,1-.269,2.2,1.685,1.685,0,0,1-.276.261l2.226-.073.754-3.419a4.294,4.294,0,0,1-2.518.723,2.2,2.2,0,0,1,.083.312Z" transform="translate(-667.921 -420.781)" opacity="0.1"/>
    <path id="Path_871" data-name="Path 871" d="M829.829,514.157c-.088-.462-.85-.931-1.7-1.266a3.467,3.467,0,0,1-2.407.211C826.342,513.985,828.25,514.372,829.829,514.157Z" transform="translate(-657.541 -434.29)" opacity="0.1"/>
    <path id="Path_872" data-name="Path 872" d="M836.723,530.021l-.058.261-3.512.115c1.471.417,3.193,1.355,2.189,2.1a7.633,7.633,0,0,0-.83.5c-.376.381.095.877.746,1.106a17.465,17.465,0,0,0,2.158.434c1.656.342,2.938,1.218,3.234,2.21.135.453.085.936.432,1.351a8.221,8.221,0,0,0,2.435,1.288c.081.04.16.082.236.126a3.19,3.19,0,0,0,1.521-1.591c.369-1.061-.327-2.222-1.757-2.931a8.221,8.221,0,0,1-2.435-1.288c-.347-.415-.3-.9-.432-1.351-.3-.992-1.578-1.868-3.234-2.21C837.189,530.1,836.956,530.058,836.723,530.021Z" transform="translate(-663.344 -447.663)" opacity="0.1"/>
    <path id="Path_873" data-name="Path 873" d="M372.435,592.4a2.676,2.676,0,0,1,1.975-1.3,6.683,6.683,0,0,1-2.646-1.194,4,4,0,0,1-1.215-.152c-.684.63-.282,1.495.586,2.046A6.3,6.3,0,0,0,372.435,592.4Z" transform="translate(-301.941 -494.293)" opacity="0.1"/>
    <path id="Path_874" data-name="Path 874" d="M402.7,471.574a11.684,11.684,0,0,1,1.533-.457c1.575-.363,3.428-.774,3.886-1.708.147-.3.13-.632.414-.9a2.593,2.593,0,0,1,2.689.037c.627.487.469,1.2-.114,1.7-.3.262-.72.505-.776.818-.1.588,1.048.948,1.959,1.227a3.872,3.872,0,0,1,1.186.625c.008-.062.015-.124.021-.186,2.464-.111,5.478-.462,6.177-1.817.156-.3.173-.636.446-.911.861-.867,3.352-.521,4.65-1.187a1.852,1.852,0,0,0,.989-1.613,2.034,2.034,0,0,1,.795-1.662c.657-.448,2.151-.513,2.567.021-.617.285-.229.87.351,1.179s1.358.566,1.527,1.009-.355.868-.7,1.281-.4,1.023.325,1.214a3.735,3.735,0,0,0,3.3-1.16,3.1,3.1,0,0,0,.345-2.379,3.2,3.2,0,0,0,2.65-.4c.652-.437,1.025-1,1.728-1.407,2.11-1.229,5.747-.527,8.673-.935,1.785-.249,3.588-.938,5.307-.565.546.118,1.007.335,1.522.491,1.942.592,4.632.171,5.776-.9a2.335,2.335,0,0,1,.9-.672,3.829,3.829,0,0,1,1.247-.107l8.218.187a18.809,18.809,0,0,1,3.773.338,14.066,14.066,0,0,1,2.413.865l5.875,2.534a5.621,5.621,0,0,0,2.187.585,2.582,2.582,0,0,0,2.746-2.72,2.567,2.567,0,0,1,2.624-2.789c2.066-.052,2.945,1.538,4.76,2.1.769.24,1.909.458,1.782.954-.059.23-.417.432-.413.652a2.7,2.7,0,0,0,1.338-.767,2.456,2.456,0,0,0,.269-2.2,1.065,1.065,0,0,0-.585-.872c-.344-.164-.891-.232-1-.48s.33-.476.4-.734c.127-.5-1.013-.714-1.782-.954-1.815-.566-2.695-2.155-4.76-2.1a2.567,2.567,0,0,0-2.624,2.789,2.582,2.582,0,0,1-2.746,2.72,5.621,5.621,0,0,1-2.187-.585L476.48,459.2a14.068,14.068,0,0,0-2.413-.865,18.809,18.809,0,0,0-3.773-.338l-8.218-.187a3.829,3.829,0,0,0-1.247.107,2.335,2.335,0,0,0-.9.672c-1.144,1.074-3.835,1.5-5.776.9-.515-.157-.976-.373-1.522-.491-1.718-.372-3.521.317-5.307.565-2.927.408-6.563-.294-8.673.935-.7.41-1.077.97-1.728,1.407a3.2,3.2,0,0,1-2.65.4,3.1,3.1,0,0,1-.345,2.379,3.735,3.735,0,0,1-3.3,1.16c-.726-.192-.668-.8-.325-1.214s.87-.835.7-1.281-.947-.7-1.527-1.009-.968-.894-.351-1.179c-.416-.534-1.91-.469-2.567-.021a2.034,2.034,0,0,0-.795,1.662,1.852,1.852,0,0,1-.989,1.613c-1.3.665-3.789.32-4.65,1.187-.273.275-.29.607-.446.911-.7,1.355-3.713,1.706-6.177,1.817-.006.062-.014.124-.021.186a3.872,3.872,0,0,0-1.186-.625c-.91-.279-2.063-.639-1.959-1.227.055-.312.473-.556.776-.818.583-.5.741-1.215.114-1.7a2.593,2.593,0,0,0-2.689-.037c-.284.265-.267.6-.414.9-.458.935-2.312,1.345-3.886,1.708s-3.336,1.039-3.188,2.006C401.2,469.765,403.553,470.688,402.7,471.574Z" transform="translate(-326.008 -390.512)" opacity="0.1"/>
    <path id="Path_875" data-name="Path 875" d="M376.132,560.29a3.452,3.452,0,0,0-1.219.477c.236.01.471.026.7.04,2.632.168,5.953-.4,6.362-1.9.206-.755-.428-1.493-1.043-2.171l-.742-.818a12.75,12.75,0,0,1-4.576.493,5.263,5.263,0,0,0-2.759.259.9.9,0,0,0-.34,1.214A5.01,5.01,0,0,0,376.132,560.29Z" transform="translate(-303.662 -467.88)" opacity="0.1"/>
    <ellipse id="Ellipse_363" data-name="Ellipse 363" cx="26.214" cy="17.301" rx="26.214" ry="17.301" transform="translate(99.865 50.967)" fill="#ea565c"/>
    <path id="Path_876" data-name="Path 876" d="M561.012,425.593s-11.883,1.223-8.388-3.845,7.864-6.816,9.961-5.417,2.971,5.243,2.621,5.243-5.417-2.971-7.165-.7S561.012,425.593,561.012,425.593Z" transform="translate(-443.846 -358.549)" fill="#fff" opacity="0.2"/>
    <path id="Path_877" data-name="Path 877" d="M613.845,462.467s9.813,6.813,3.86,8.381-10.406.048-11.087-2.378,1.161-5.913,1.426-5.685,2.175,5.783,4.981,5.2S613.845,462.467,613.845,462.467Z" transform="translate(-486.382 -394.927)" fill="#fff" opacity="0.2"/>
    <path id="Path_878" data-name="Path 878" d="M650.543,412.53s.774-11.921,5.189-7.63,5.409,8.89,3.681,10.725-5.665,2.055-5.606,1.711,3.832-4.847,1.883-6.948S650.543,412.53,650.543,412.53Z" transform="translate(-520.789 -349.26)" fill="#fff" opacity="0.2"/>
    <ellipse id="Ellipse_364" data-name="Ellipse 364" cx="26.214" cy="17.301" rx="26.214" ry="17.301" transform="translate(68.234 49.569)" fill="#ea565c"/>
    <path id="Path_879" data-name="Path 879" d="M416.806,419.219s-11.883,1.223-8.388-3.845,7.864-6.816,9.961-5.417S421.35,415.2,421,415.2s-5.417-2.971-7.165-.7S416.806,419.219,416.806,419.219Z" transform="translate(-331.271 -353.573)" fill="#fff" opacity="0.2"/>
    <path id="Path_880" data-name="Path 880" d="M469.64,456.093s9.813,6.813,3.86,8.381-10.406.048-11.087-2.378,1.161-5.913,1.426-5.685,2.175,5.783,4.981,5.2S469.64,456.093,469.64,456.093Z" transform="translate(-373.807 -389.951)" fill="#fff" opacity="0.2"/>
    <path id="Path_881" data-name="Path 881" d="M506.337,406.156s.774-11.921,5.189-7.63,5.409,8.89,3.681,10.725-5.664,2.056-5.606,1.711,3.832-4.847,1.883-6.948S506.337,406.156,506.337,406.156Z" transform="translate(-408.214 -344.284)" fill="#fff" opacity="0.2"/>
    <path id="Path_882" data-name="Path 882" d="M443.479,392.286c5.71,3.174,9.339,7.926,9.339,13.238,0,9.555-11.736,17.3-26.214,17.3a36.746,36.746,0,0,1-13.554-2.49,35.061,35.061,0,0,0,16.875,4.063c14.477,0,26.214-7.746,26.214-17.3C456.138,400.816,451.066,395.317,443.479,392.286Z" transform="translate(-335.389 -340.14)" opacity="0.1"/>
    <path id="Path_883" data-name="Path 883" d="M587.685,397.863c5.71,3.174,9.339,7.926,9.339,13.238,0,9.555-11.736,17.3-26.214,17.3a36.746,36.746,0,0,1-13.554-2.49,35.061,35.061,0,0,0,16.875,4.063c14.477,0,26.214-7.746,26.214-17.3C600.344,406.393,595.272,400.894,587.685,397.863Z" transform="translate(-447.964 -344.494)" opacity="0.1"/>
    <path id="Path_884" data-name="Path 884" d="M408.37,385.34s22.544-24.117,77.767-14.155c43.654,7.874,7.807,21.427-9.129,26.76a60.848,60.848,0,0,1-15.148,2.727C442.754,401.656,394.7,402.536,408.37,385.34Z" transform="translate(-329.852 -321.785)" fill="#714b4f"/>
    <path id="Path_885" data-name="Path 885" d="M477.013,426.319a60.847,60.847,0,0,1-15.148,2.727c-15.478.8-49.953,1.525-55.221-7.369-6.651,14.376,37.184,13.541,55.221,12.612a60.847,60.847,0,0,0,15.148-2.727c12.413-3.909,34.986-12.234,28.965-19.5C501.924,417.763,486.5,423.331,477.013,426.319Z" transform="translate(-329.857 -355.576)" opacity="0.1"/>
    <line id="Line_8" data-name="Line 8" x2="6.116" y2="12.058" transform="translate(126.663 49.487)" fill="none" stroke="#000" stroke-miterlimit="10" stroke-width="2" opacity="0.1"/>
    <line id="Line_9" data-name="Line 9" x2="5.243" y2="10.136" transform="translate(107.789 53.856)" fill="none" stroke="#000" stroke-miterlimit="10" stroke-width="2" opacity="0.1"/>
    <line id="Line_10" data-name="Line 10" x2="8.214" y2="12.058" transform="translate(137.673 49.487)" fill="none" stroke="#000" stroke-miterlimit="10" stroke-width="2" opacity="0.1"/>
    <line id="Line_11" data-name="Line 11" y1="6.99" x2="55.048" transform="translate(107.789 58.051)" fill="none" stroke="#000" stroke-miterlimit="10" stroke-width="2" opacity="0.1"/>
    <line id="Line_12" data-name="Line 12" x2="3.845" y2="5.417" transform="translate(160.74 51.759)" fill="none" stroke="#000" stroke-miterlimit="10" stroke-width="2" opacity="0.1"/>
    <line id="Line_13" data-name="Line 13" x2="2.447" y2="5.068" transform="translate(96.954 58.051)" fill="none" stroke="#000" stroke-miterlimit="10" stroke-width="2" opacity="0.1"/>
    <path id="Path_886" data-name="Path 886" d="M420.225,340.955s50.27-.227,50.732-.682,11.069-.7,13.144,2.261,2.767,4.321,0,4.776-93.854,47.077-93.854,47.077-5.073.455-2.537-4.549S420.225,340.955,420.225,340.955Z" transform="translate(-315.054 -299.322)" fill="#f6c964"/>
    <path id="Path_887" data-name="Path 887" d="M490.394,429.832c0,1.882-9.076,6.466-20.272,6.466s-20.272-4.584-20.272-6.466,9.076-2.621,20.272-2.621S490.394,427.95,490.394,429.832Z" transform="translate(-364.117 -367.404)" fill="#61ab43"/>
    <ellipse id="Ellipse_365" data-name="Ellipse 365" cx="20.272" cy="3.408" rx="20.272" ry="3.408" transform="translate(85.733 58.933)" fill="#61ab43"/>
    <path id="Path_888" data-name="Path 888" d="M601.934,415.491c0,1.882-9.076,6.466-20.272,6.466s-20.272-4.584-20.272-6.466,9.076-2.621,20.272-2.621S601.934,413.609,601.934,415.491Z" transform="translate(-451.192 -356.208)" fill="#61ab43"/>
    <ellipse id="Ellipse_366" data-name="Ellipse 366" cx="20.272" cy="3.408" rx="20.272" ry="3.408" transform="translate(110.199 55.787)" fill="#61ab43"/>
    <path id="Path_889" data-name="Path 889" d="M713.474,401.151c0,1.882-9.076,6.466-20.272,6.466s-20.272-4.584-20.272-6.466,9.076-2.621,20.272-2.621S713.474,399.268,713.474,401.151Z" transform="translate(-538.266 -345.014)" fill="#61ab43"/>
    <ellipse id="Ellipse_367" data-name="Ellipse 367" cx="20.272" cy="3.408" rx="20.272" ry="3.408" transform="translate(134.665 52.642)" fill="#61ab43"/>
    <path id="Path_890" data-name="Path 890" d="M406.173,273.03s-8.337-1.357-4.072-8.144,5.7-14.394,7.562-16.093c2.081-1.9,45.035-35.215,78.5,1.65a49.18,49.18,0,0,1,8.534,13.326,7.782,7.782,0,0,0,1.287,2.185c1.357,1.357,2.521,5.235,0,7.174S421.2,282.628,406.173,273.03Z" transform="translate(-325.893 -215.926)" fill="#3f3d56"/>
    <path id="Path_891" data-name="Path 891" d="M590.685,284.207a3.261,3.261,0,0,1-1.745.582c-.964,0-1.745-.26-1.745-.582s.781-.582,1.745-.582a3.262,3.262,0,0,1,1.745.582Z" transform="translate(-471.336 -255.314)" fill="#f2f2f2"/>
    <path id="Path_892" data-name="Path 892" d="M527.04,267.412a3.261,3.261,0,0,1-1.745.582c-.964,0-1.745-.26-1.745-.582s.781-.582,1.745-.582A3.261,3.261,0,0,1,527.04,267.412Z" transform="translate(-421.651 -242.202)" fill="#f2f2f2"/>
    <path id="Path_893" data-name="Path 893" d="M700.467,289.392a3.261,3.261,0,0,1-1.839.034c-.92-.288-1.588-.77-1.492-1.076s.919-.322,1.839-.034A3.262,3.262,0,0,1,700.467,289.392Z" transform="translate(-557.155 -258.815)" fill="#f2f2f2"/>
    <path id="Path_894" data-name="Path 894" d="M582.9,244.31a3.262,3.262,0,0,1-1.839.034c-.92-.288-1.588-.77-1.492-1.076s.919-.322,1.839-.034A3.262,3.262,0,0,1,582.9,244.31Z" transform="translate(-465.376 -223.621)" fill="#f2f2f2"/>
    <path id="Path_895" data-name="Path 895" d="M711.074,260.222a3.262,3.262,0,0,1-1.839.034c-.92-.288-1.588-.77-1.492-1.076s.919-.322,1.839-.034A3.262,3.262,0,0,1,711.074,260.222Z" transform="translate(-565.435 -236.043)" fill="#f2f2f2"/>
    <path id="Path_896" data-name="Path 896" d="M684.384,260.34a3.262,3.262,0,0,1-1.745.582c-.964,0-1.745-.26-1.745-.582s.781-.582,1.745-.582A3.262,3.262,0,0,1,684.384,260.34Z" transform="translate(-544.482 -236.682)" fill="#f2f2f2"/>
    <path id="Path_897" data-name="Path 897" d="M608.364,244.429a3.262,3.262,0,0,1-1.745.582c-.964,0-1.745-.26-1.745-.582s.781-.582,1.745-.582A3.262,3.262,0,0,1,608.364,244.429Z" transform="translate(-485.137 -224.261)" fill="#f2f2f2"/>
    <path id="Path_898" data-name="Path 898" d="M666.7,244.429a3.261,3.261,0,0,1-1.745.582c-.964,0-1.745-.26-1.745-.582s.781-.582,1.745-.582a3.261,3.261,0,0,1,1.745.582Z" transform="translate(-530.681 -224.261)" fill="#f2f2f2"/>
    <path id="Path_899" data-name="Path 899" d="M644.606,278.9a3.262,3.262,0,0,1-1.745.582c-.964,0-1.745-.26-1.745-.582s.781-.582,1.745-.582A3.262,3.262,0,0,1,644.606,278.9Z" transform="translate(-513.429 -251.173)" fill="#f2f2f2"/>
    <path id="Path_900" data-name="Path 900" d="M592.75,266.228a3.262,3.262,0,0,1,.915-1.6c.719-.642,1.475-.967,1.689-.728s-.2.954-.915,1.6A3.262,3.262,0,0,1,592.75,266.228Z" transform="translate(-475.673 -239.857)" fill="#f2f2f2"/>
    <path id="Path_901" data-name="Path 901" d="M552.971,256.505a3.261,3.261,0,0,1,.915-1.6c.719-.642,1.475-.967,1.689-.728s-.2.954-.915,1.6A3.262,3.262,0,0,1,552.971,256.505Z" transform="translate(-444.619 -232.267)" fill="#f2f2f2"/>
    <path id="Path_902" data-name="Path 902" d="M484.023,304.239a3.261,3.261,0,0,1,.915-1.6c.719-.642,1.475-.967,1.689-.728s-.2.954-.915,1.6a3.261,3.261,0,0,1-1.689.728Z" transform="translate(-390.795 -269.531)" fill="#f2f2f2"/>
    <path id="Path_903" data-name="Path 903" d="M636.948,251.2a3.262,3.262,0,0,1,.915-1.6c.719-.642,1.475-.967,1.689-.728s-.2.954-.915,1.6A3.261,3.261,0,0,1,636.948,251.2Z" transform="translate(-510.176 -228.126)" fill="#f2f2f2"/>
    <path id="Path_904" data-name="Path 904" d="M621.036,283.024a3.261,3.261,0,0,1,.915-1.6c.719-.642,1.475-.967,1.689-.728s-.2.954-.915,1.6A3.261,3.261,0,0,1,621.036,283.024Z" transform="translate(-497.754 -252.969)" fill="#f2f2f2"/>
    <path id="Path_905" data-name="Path 905" d="M876.877,637.975a9.63,9.63,0,0,0-3.982,2.389s-2.389,1.062-3.849.8-4.115,2.389-1.991,3.186,15.132,2.92,15.4,2.257.265-7.433.265-7.433Z" transform="translate(-689.19 -531.938)" fill="#575a89"/>
    <path id="Path_906" data-name="Path 906" d="M975.75,632.779a9.63,9.63,0,0,0-3.516,3.034s-2.173,1.454-3.657,1.442-3.646,3.057-1.418,3.479,15.408.293,15.557-.407-1.008-7.369-1.008-7.369Z" transform="translate(-767.209 -527.882)" fill="#575a89"/>
    <circle id="Ellipse_368" data-name="Ellipse 368" cx="5.973" cy="5.973" r="5.973" transform="translate(186.028 2.967)" fill="#ffb9b9"/>
    <path id="Path_907" data-name="Path 907" d="M934.38,199.851s.664,4.513,1.858,5.044a8.82,8.82,0,0,1,2.257,1.593l-3.318,1.593-6.5-.4s.531-2.92-.4-4.38S934.38,199.851,934.38,199.851Z" transform="translate(-737.535 -189.915)" fill="#ffb9b9"/>
    <path id="Path_908" data-name="Path 908" d="M993.794,297.279s3.053,7.831,0,15.4-4.38,8.761-4.38,8.761l-.929-9.955,1.068-.969a12.6,12.6,0,0,0,.121-4.809c-.526-1.788.271-7.363.271-7.363Z" transform="translate(-784.604 -265.973)" fill="#ffb9b9"/>
    <path id="Path_909" data-name="Path 909" d="M896.221,357.258s-3.849,8.761-3.451,13.008,3.451,22.167,3.451,22.167-.4,23.1.8,23.1,6.9,2.124,6.9.664,1.195-36.5,1.195-36.5,6.77,15.4,7.433,16.592,4.911,19.91,6.371,19.91,5.973-1.327,5.575-2.257-4.911-21.636-7.433-26.945-1.991-25.353-1.991-25.353l-4.248-9.292Z" transform="translate(-709.861 -308.961)" fill="#3f3d56"/>
    <path id="Path_910" data-name="Path 910" d="M909.836,160.773s-3.717-.265-3.982-1.195-.8-1.726-.531-1.726.4-.664.4-.664.265-.133.4,0,.266-.929.266-.929.133-.4.265-.133.133.133.266-.265.8-.664.8-.664,2.522.133,2.92-.4,4.911-.133,5.84.531,5.044,3.053,4.38,5.044-3.053,6.371-3.053,7.035-.929.531-1.195-.133-2.389-1.46-2.389-1.858-1.195-4.115-1.858-3.849-1.46,2.389-1.726,1.991A18.971,18.971,0,0,1,909.836,160.773Z" transform="translate(-719.627 -154.554)" fill="#3f3d56"/>
    <path id="Path_911" data-name="Path 911" d="M925.052,230.854s-5.441-7.964-7.034-8.362-5.177-1.46-5.177-1.46a26.111,26.111,0,0,0-4.646,1.062c-1.062.531-5.044,1.46-5.177,3.053s1.062,16.858.4,18.318-2.92,15.4-1.858,15.132.266-3.717,4.911-3.849,7.168-2.92,8.893.4,6.637,5.84,6.637,5.84a32.126,32.126,0,0,1,.531-3.186c.4-1.858-1.062-6.371-1.062-6.371s.133-10.486.664-11.681S925.052,230.854,925.052,230.854Z" transform="translate(-716.527 -206.45)" fill="#006aff"/>
    <path id="Path_912" data-name="Path 912" d="M992.557,264.6l1.991.265s-.133,2.655.4,3.451,1.46,4.911.929,5.044-5.31.929-5.31.929l-.266-6.106Z" transform="translate(-786.021 -240.462)" fill="#006aff"/>
    <path id="Path_913" data-name="Path 913" d="M868.731,286.387s-1.327,8.628-1.991,9.69-3.982,15.928-3.982,15.928-5.457,7.589-2.8,7.456,5.457-6.925,5.457-6.925,8.23-15,8.23-16.592,1.991-9.557,1.991-9.557Z" transform="translate(-683.699 -257.47)" fill="#ffb9b9"/>
    <path id="Path_914" data-name="Path 914" d="M902.76,233.134l-2.389.929s-3.053,10.884-2.389,11.814,8.628-.4,8.761-.8S905.282,233.134,902.76,233.134Z" transform="translate(-713.879 -215.898)" fill="#006aff"/>
    <path id="Path_915" data-name="Path 915" d="M155.594,561.532c0,12.933,8.113,23.4,18.14,23.4" transform="translate(-134.406 -472.262)" fill="#46455b"/>
    <path id="Path_916" data-name="Path 916" d="M238.293,583.994c0-13.078,9.054-23.661,20.243-23.661" transform="translate(-198.965 -471.326)" fill="#006aff"/>
    <path id="Path_917" data-name="Path 917" d="M185.557,566.877c0,12.285,5.174,22.225,11.567,22.225" transform="translate(-157.796 -476.435)" fill="#006aff"/>
    <path id="Path_918" data-name="Path 918" d="M238.293,560.6c0-16.711,10.465-30.233,23.4-30.233" transform="translate(-198.965 -447.936)" fill="#46455b"/>
    <path id="Path_919" data-name="Path 919" d="M220.9,664.007s2.573-.079,3.348-.631,3.957-1.211,4.15-.326,3.866,4.4.962,4.427-6.748-.452-7.522-.924S220.9,664.007,220.9,664.007Z" transform="translate(-185.383 -551.174)" fill="#a8a8a8"/>
    <path id="Path_920" data-name="Path 920" d="M229.406,672.1c-2.9.023-6.748-.452-7.522-.924-.589-.359-.824-1.647-.9-2.241l-.086,0s.163,2.075.937,2.546,4.618.947,7.522.924c.838-.007,1.128-.3,1.112-.747C230.35,671.932,230.03,672.1,229.406,672.1Z" transform="translate(-185.383 -556.11)" opacity="0.2"/>
  </g>
</svg>
